<?xml version="1.0" encoding="utf-8"?>
<!-- Generator: Adobe Illustrator 26.5.0, SVG Export Plug-In . SVG Version: 6.00 Build 0)  -->
<svg version="1.1" id="Capa_1" xmlns="http://www.w3.org/2000/svg" xmlns:xlink="http://www.w3.org/1999/xlink" x="0px" y="0px"
	 width="1368.7px" height="510.3px" viewBox="0 0 1368.7 510.3" style="enable-background:new 0 0 1368.7 510.3;"
	 xml:space="preserve">
<style type="text/css">
	.st0{clip-path:url(#SVGID_00000179605748478514759350000003200426159634648734_);fill:#66800A;}
	.st1{clip-path:url(#SVGID_00000103973829952532613250000009467354380765108145_);fill:#223F05;}
	.st2{clip-path:url(#SVGID_00000049941674166804443950000014275867160533203352_);fill:#66800A;}
	.st3{clip-path:url(#SVGID_00000067207727026788722020000002298258940925110174_);fill:#223F05;}
</style>
<g>
	<defs>
		<path id="SVGID_1_" d="M2.7,90.9c158.7,88.7,401.4,133.7,596,237.9H471.8H2.7V90.9z"/>
	</defs>
	<clipPath id="SVGID_00000114781136742271998950000010905984955370736808_">
		<use xlink:href="#SVGID_1_"  style="overflow:visible;"/>
	</clipPath>
	
		<rect x="2.7" y="90.9" style="clip-path:url(#SVGID_00000114781136742271998950000010905984955370736808_);fill:#66800A;" width="596" height="237.9"/>
</g>
<g>
	<defs>
		<path id="SVGID_00000178184880003363711410000006303282135405174688_" d="M2.7,32.2c228.9,97.8,547.7,156.3,783.8,302H598.6
			c-8.4-4.5-16.9-8.9-25.5-13.2C383.3,226,154.5,181.1,2.7,96.3V32.2z"/>
	</defs>
	<clipPath id="SVGID_00000122719874869210347410000011235029685724987791_">
		<use xlink:href="#SVGID_00000178184880003363711410000006303282135405174688_"  style="overflow:visible;"/>
	</clipPath>
	
		<rect x="2.7" y="32.2" style="clip-path:url(#SVGID_00000122719874869210347410000011235029685724987791_);fill:#223F05;" width="783.8" height="302"/>
</g>
<g>
	<defs>
		<path id="SVGID_00000062167470187033164740000010365153088783237048_" d="M1368.7,200.6C1010.7-31.6,596.3,218.4,262.4,311.7
			L-0.3,385.9v124.4l1369,0.9V280V200.6z"/>
	</defs>
	<clipPath id="SVGID_00000081611329038105966360000017757014315342658709_">
		<use xlink:href="#SVGID_00000062167470187033164740000010365153088783237048_"  style="overflow:visible;"/>
	</clipPath>
	
		<rect x="1.6" y="-32.6" style="clip-path:url(#SVGID_00000081611329038105966360000017757014315342658709_);fill:#66800A;" width="1367" height="641"/>
</g>
<g>
	<defs>
		<path id="SVGID_00000108311027385211390170000009571874223187243675_" d="M2.9,325.3c126.7-22.1,267-74.5,414.3-131
			C723.5,76.9,1060.1-58,1368.7,26.8v165.6v30.3C1011.5-9.6,598,240.5,264.8,333.7L2.7,408L2.9,325.3z"/>
	</defs>
	<clipPath id="SVGID_00000080183259506527846050000003103702751860729521_">
		<use xlink:href="#SVGID_00000108311027385211390170000009571874223187243675_"  style="overflow:visible;"/>
	</clipPath>
	<polygon style="clip-path:url(#SVGID_00000080183259506527846050000003103702751860729521_);fill:#223F05;" points="1368.7,333.7 
		2.9,422.8 0,-58 1368.7,-58 	"/>
</g>
</svg>
