<svg width="100" height="100" viewBox="0 0 100 100" fill="none" xmlns="http://www.w3.org/2000/svg">
<g clip-path="url(#clip0_2105_510)">
<path d="M82.1526 84.2855C65.6115 99.7487 35.846 99.7822 18.501 84.4614C31.8092 65.4297 64.439 61.9367 82.1526 84.2855Z" fill="#66800A"/>
<path d="M50.3263 28.4721C60.41 28.4805 68.601 36.7817 68.5423 46.9258C68.4921 56.9024 60.2844 65.1031 50.3346 65.1114C40.2174 65.1282 31.9845 56.9107 31.9678 46.7834C31.951 36.6645 40.1839 28.4554 50.3179 28.4638L50.3263 28.4721Z" fill="#66800A"/>
<path d="M6.84249 24.6857C0.996591 34.7293 -1.18096 46.4482 0.602956 57.9158C2.03512 67.13 6.15572 75.8166 12.2529 82.8529C24.221 96.6744 43.3249 102.798 61.1222 98.7853C78.9195 94.7729 93.1993 81.0352 98.149 63.637C103.199 45.8702 97.7386 26.1098 84.2294 13.503C70.5192 0.695116 50.2344 -3.50994 32.613 3.08245C29.9078 4.09602 27.2947 5.31901 24.7989 6.75978C22.3031 8.20056 24.5477 12.2213 27.1272 10.7387C35.402 5.95563 44.8911 3.8866 54.3718 4.75777C62.3199 5.48654 70.1088 8.50212 76.6834 13.2182C90.1088 22.8596 97.3785 40.0149 95.0167 56.3158C92.6716 72.5162 81.541 86.7313 66.1557 92.486C58.2746 95.4346 49.5979 96.2388 41.4489 94.6472C33.2998 93.0557 26.0971 89.4956 20.0669 84.1932C13.8944 78.7652 9.25455 71.7707 6.75873 63.9385C3.62641 54.1128 3.90279 43.508 7.52925 33.8498C8.4254 31.4792 9.54768 29.2091 10.8207 27.0144C12.3115 24.4428 8.33327 22.1225 6.84249 24.6857Z" fill="#66800A"/>
<path d="M16.1976 19.9949C18.279 19.9949 19.9664 18.3073 19.9664 16.2255C19.9664 14.1436 18.279 12.456 16.1976 12.456C14.1161 12.456 12.4287 14.1436 12.4287 16.2255C12.4287 18.3073 14.1161 19.9949 16.1976 19.9949Z" fill="#66800A"/>
</g>
<defs>
<clipPath id="clip0_2105_510">
<rect width="100" height="100" fill="white"/>
</clipPath>
</defs>
</svg>
