<svg width="108" height="108" viewBox="0 0 108 108" fill="none" xmlns="http://www.w3.org/2000/svg">
<g clip-path="url(#clip0_2105_510)">
<path d="M88.7242 91.0283C70.8599 107.729 38.7131 107.765 19.9805 91.2183C34.3533 70.6641 69.5935 66.8916 88.7242 91.0283Z" fill="#66800A"/>
<path d="M54.3526 30.7499C65.243 30.7589 74.0892 39.7243 74.0259 50.6799C73.9716 61.4545 65.1073 70.3113 54.3616 70.3204C43.435 70.3384 34.5435 61.4636 34.5254 50.5261C34.5073 39.5976 43.3988 30.7318 54.3435 30.7409L54.3526 30.7499Z" fill="#66800A"/>
<path d="M7.39012 26.6607C1.07655 37.5078 -1.27521 50.1642 0.651427 62.5492C2.19816 72.5006 6.64841 81.8821 13.2333 89.4813C26.159 104.408 46.7911 111.022 66.0122 106.688C85.2333 102.355 100.655 87.5182 106.001 68.7281C111.455 49.54 105.558 28.1987 90.968 14.5833C76.161 0.750872 54.2534 -3.79059 35.2223 3.32919C32.3007 4.42385 29.4786 5.74467 26.7831 7.30071C24.0876 8.85675 26.5117 13.1992 29.2977 11.5979C38.2343 6.43223 48.4826 4.19768 58.7218 5.13854C67.3057 5.92561 75.7178 9.18244 82.8183 14.2758C97.3177 24.6886 105.169 43.2163 102.618 60.8212C100.086 78.3176 88.0645 93.67 71.4484 99.8851C62.9368 103.07 53.566 103.938 44.765 102.219C35.964 100.5 28.1851 96.6554 21.6725 90.9288C15.0062 85.0665 9.99514 77.5125 7.29967 69.0538C3.91675 58.4419 4.21525 46.9888 8.13183 36.5579C9.09967 33.9977 10.3117 31.546 11.6866 29.1757C13.2967 26.3984 9.00017 23.8924 7.39012 26.6607Z" fill="#66800A"/>
<path d="M17.4932 21.5946C19.7412 21.5946 21.5636 19.7719 21.5636 17.5235C21.5636 15.2752 19.7412 13.4525 17.4932 13.4525C15.2452 13.4525 13.4229 15.2752 13.4229 17.5235C13.4229 19.7719 15.2452 21.5946 17.4932 21.5946Z" fill="#66800A"/>
</g>
<defs>
<clipPath id="clip0_2105_510">
<rect width="108" height="108" fill="white"/>
</clipPath>
</defs>
</svg>
