<svg xmlns="http://www.w3.org/2000/svg" xmlns:xlink="http://www.w3.org/1999/xlink" x="0px" y="0px"
	 width="40px" height="40px" viewBox="0 0 40 40" style="enable-background:new 0 0 40 40;" xml:space="preserve">
<path fill="#FFFFFF" d="M27.4,18.8c0-4.1-3.3-7.4-7.3-7.4l0,0c-4.1,0-7.3,3.3-7.3,7.3c0,4.1,3.3,7.3,7.3,7.3
	C24.1,26,27.4,22.8,27.4,18.8z"/>
<path fill="#FFFFFF" d="M33.7,5.4C28.2,0.3,20.1-1.4,13,1.2C12,1.6,10.9,2.1,9.9,2.7c-1,0.6-0.1,2.2,0.9,1.6c3.3-1.9,7.1-2.7,10.9-2.4
	c3.2,0.3,6.3,1.5,8.9,3.4C36,9.1,38.9,16,38,22.5c-0.6,4.1-2.6,7.9-5.6,10.7c-7-8.2-19.3-7-24.7,0.2c-2.3-2.1-4-4.8-5-7.8
	c-1.3-3.9-1.1-8.2,0.3-12c0.4-0.9,0.8-1.9,1.3-2.7c0.6-1-1-2-1.6-0.9c-2.3,4-3.2,8.7-2.5,13.3c0.6,3.7,2.2,7.2,4.7,10
	c4.8,5.5,12.4,8,19.5,6.4c7.1-1.6,12.8-7.1,14.8-14.1C41.3,18.3,39.1,10.4,33.7,5.4z"/>
<path fill="#FFFFFF" d="M6.5,8C7.3,8,8,7.3,8,6.5C8,5.7,7.3,5,6.5,5C5.6,5,5,5.7,5,6.5C5,7.3,5.6,8,6.5,8z"/>
</svg>
