<?xml version="1.0" encoding="utf-8"?>
<!-- Generator: Adobe Illustrator 26.5.0, SVG Export Plug-In . SVG Version: 6.00 Build 0)  -->
<svg version="1.1" id="Capa_1" xmlns="http://www.w3.org/2000/svg" xmlns:xlink="http://www.w3.org/1999/xlink" x="0px" y="0px"
	 width="40px" height="40px" viewBox="0 0 40 40" style="enable-background:new 0 0 40 40;" xml:space="preserve">
<style type="text/css">
	.st0{fill:#66800A;}
</style>
<path class="st0" d="M9.2,18.1c0,3.4,2.8,6.1,6.2,6.1c3.3,0,6.1-2.8,6.1-6.1c0-3.4-2.7-6.2-6.1-6.2C12,12,9.2,14.7,9.2,18.1z"/>
<path class="st0" d="M33.6,5.4c-6.4-6-16.2-7-23.8-2.7c-1,0.6-0.1,2.2,0.9,1.6c6.2-3.6,14-3.2,19.8,1C36,9.1,38.9,16,38,22.6
	c-0.2,1.4-0.6,2.8-1.2,4.2c-3.6-8.3-14.1-7.4-17.1-2c4.8,0.7,7.6,4,10.4,10.2c-0.4,0.3-0.8,0.6-1.2,0.8c-5-14-19.2-11.6-23.9-5.5
	C1.1,24.6,0.7,17,4.3,10.8c0.6-1-1-2-1.6-0.9c-4.3,7.4-3.4,16.9,2.2,23.3c4.8,5.5,12.4,8,19.5,6.4c7.1-1.6,12.9-7.2,14.8-14.2
	C41.2,18.3,39,10.4,33.6,5.4z"/>
<path class="st0" d="M6.4,8c0.8,0,1.5-0.7,1.5-1.5c0-0.8-0.7-1.5-1.5-1.5S4.9,5.6,4.9,6.5S5.6,8,6.4,8z"/>
<path class="st0" d="M32.7,14.8c0-2.6-2.1-4.7-4.6-4.7c-2.6,0-4.7,2.1-4.7,4.7s2.1,4.7,4.7,4.7C30.6,19.5,32.7,17.4,32.7,14.8z"/>
</svg>
