<svg width="100" height="100" viewBox="0 0 100 100" fill="none" xmlns="http://www.w3.org/2000/svg">
<g clip-path="url(#clip0_2105_515)">
<path d="M92.238 67.2287C86.5295 79.015 88.2821 78.4641 75.5797 87.8798C68.5191 72.0701 61.3751 63.7562 49.4238 61.9699C56.8016 48.3806 83.3914 46.0935 92.238 67.2454V67.2287Z" fill="#66800A"/>
<path d="M38.4744 29.9499C46.9038 29.9499 53.764 36.8948 53.714 45.3923C53.6639 53.7395 46.8036 60.601 38.4911 60.601C30.0284 60.601 23.1348 53.7395 23.1348 45.2754C23.1348 36.8113 30.0117 29.9499 38.4911 29.9499H38.4744Z" fill="#66800A"/>
<path d="M6.74372 24.6245C-3.92228 43.122 -1.81912 66.7781 12.2353 82.9217C24.2366 96.6946 43.2986 102.805 61.0752 98.7981C78.8519 94.7915 93.2735 80.935 98.1809 63.4392C103.155 45.6763 97.6634 25.9601 84.1598 13.3891C68.069 -1.60254 43.7659 -4.24027 24.7207 6.67793C22.1502 8.14704 24.4703 12.137 27.0408 10.6679C42.6142 1.73636 62.0433 2.67125 76.6319 13.1387C90.1522 22.8382 97.3964 39.9667 94.9761 56.4442C92.6059 72.5878 81.4057 86.7948 66.066 92.5043C50.7264 98.2138 32.5658 95.2255 20.0303 84.2071C3.73922 69.9 -0.0998756 45.7096 10.733 26.945C12.2186 24.3741 8.22929 22.0369 6.74372 24.6245Z" fill="#66800A"/>
<path d="M16.1073 19.9165C18.1907 19.9165 19.8796 18.2273 19.8796 16.1436C19.8796 14.0598 18.1907 12.3706 16.1073 12.3706C14.0239 12.3706 12.335 14.0598 12.335 16.1436C12.335 18.2273 14.0239 19.9165 16.1073 19.9165Z" fill="#66800A"/>
<path d="M72.6094 90.4006C41.1956 106.327 16.1079 83.6895 11.8516 76.7779C22.9849 60.8681 60.0572 53.606 72.6094 90.4006Z" fill="#66800A"/>
<path d="M70.1552 25.2421C76.5982 25.2421 81.8227 30.5509 81.7893 37.0284C81.7559 43.4057 76.5147 48.6477 70.1552 48.6477C63.6955 48.6477 58.4376 43.4057 58.4209 36.9449C58.4209 30.4841 63.6621 25.2421 70.1552 25.2421Z" fill="#66800A"/>
</g>
<defs>
<clipPath id="clip0_2105_515">
<rect width="100" height="100" fill="white"/>
</clipPath>
</defs>
</svg>
