<svg version="1.1" id="Capa_1" xmlns="http://www.w3.org/2000/svg" xmlns:xlink="http://www.w3.org/1999/xlink" x="0px" y="0px"
	 width="40px" height="40px" viewBox="0 0 40 40" style="enable-background:new 0 0 40 40;" xml:space="preserve">
<path fill="#FFFFFF" d="M9.4,18.1c0,3.3,2.7,6,6.1,6c3.3,0,6-2.7,6-6c0-3.3-2.7-6.1-6-6.1C12.1,12.1,9.4,14.8,9.4,18.1z"/>
<path fill="#FFFFFF" d="M33.5,5.6C27.1-0.3,17.5-1.4,10,2.9C9,3.5,9.9,5.1,11,4.5c6.1-3.5,13.8-3.2,19.5,1c5.3,3.8,8.2,10.6,7.2,17.1
	c-0.2,1.4-0.6,2.8-1.1,4.1c-3.5-8.2-13.9-7.3-16.8-1.9c4.7,0.7,7.5,3.9,10.3,10.1c-0.4,0.3-0.8,0.5-1.2,0.8
	C23.8,21.8,9.9,24.2,5.3,30.2C1.4,24.5,1,17,4.5,10.9C5.1,9.9,3.5,9,3,10c-4.2,7.3-3.4,16.6,2.2,23c4.7,5.4,12.2,7.8,19.2,6.3
	c7-1.6,12.7-7,14.6-13.9C41,18.3,38.8,10.5,33.5,5.6z"/>
<path fill="#FFFFFF" d="M6.6,8.1c0.8,0,1.5-0.7,1.5-1.5c0-0.8-0.7-1.5-1.5-1.5S5.2,5.8,5.2,6.7C5.2,7.5,5.8,8.1,6.6,8.1z"/>
<path fill="#FFFFFF" d="M32.5,14.9c0-2.6-2-4.6-4.6-4.6c-2.6,0-4.6,2.1-4.6,4.6c0,2.5,2.1,4.6,4.6,4.6C30.5,19.5,32.5,17.4,32.5,14.9z"
	/>
</svg>
