<?xml version="1.0" encoding="utf-8"?>
<!-- Generator: Adobe Illustrator 25.0.0, SVG Export Plug-In . SVG Version: 6.00 Build 0)  -->
<svg version="1.0" id="Capa_1" xmlns="http://www.w3.org/2000/svg" xmlns:xlink="http://www.w3.org/1999/xlink" x="0px" y="0px"
	 viewBox="0 0 300 100" enable-background="new 0 0 300 100" xml:space="preserve">
<g>
	<g>
		<path fill="#1D1D1B" d="M10,94.06v-8.67h5.48v1.34h-3.9v2.21h3.47v1.34h-3.47v3.78H10z"/>
		<path fill="#1D1D1B" d="M22.74,94.25c-0.59,0-1.1-0.09-1.53-0.26c-0.43-0.17-0.78-0.41-1.06-0.72c-0.28-0.31-0.49-0.67-0.62-1.09
			c-0.13-0.42-0.2-0.88-0.2-1.38v-5.42h1.59v5.27c0,0.39,0.04,0.73,0.13,1.01c0.09,0.28,0.21,0.51,0.38,0.68
			c0.16,0.17,0.35,0.3,0.58,0.39c0.22,0.08,0.47,0.12,0.75,0.12s0.53-0.04,0.75-0.12c0.23-0.08,0.42-0.21,0.58-0.39
			c0.16-0.18,0.29-0.4,0.38-0.68c0.09-0.28,0.13-0.62,0.13-1.01v-5.27h1.59v5.42c0,0.5-0.07,0.96-0.21,1.38
			c-0.14,0.42-0.35,0.78-0.63,1.09c-0.28,0.31-0.64,0.55-1.07,0.72C23.85,94.16,23.33,94.25,22.74,94.25z"/>
		<path fill="#1D1D1B" d="M36.54,94.06c-0.28-0.48-0.6-0.99-0.95-1.53c-0.35-0.55-0.71-1.1-1.09-1.65
			c-0.38-0.55-0.76-1.09-1.15-1.62c-0.39-0.52-0.76-0.99-1.11-1.41v6.21H30.7v-8.67h1.29c0.33,0.35,0.69,0.77,1.08,1.25
			c0.38,0.48,0.77,0.98,1.16,1.5c0.39,0.52,0.76,1.04,1.13,1.56c0.36,0.52,0.69,1.01,0.97,1.46v-5.76h1.57v8.67H36.54z"/>
		<path fill="#1D1D1B" d="M49.82,89.71c0,0.75-0.12,1.4-0.35,1.96c-0.23,0.55-0.57,1.02-1,1.39c-0.43,0.37-0.95,0.65-1.55,0.83
			c-0.61,0.18-1.27,0.27-2.01,0.27c-0.35,0-0.75-0.01-1.19-0.04c-0.44-0.03-0.86-0.09-1.26-0.18v-8.42c0.4-0.09,0.83-0.15,1.28-0.18
			c0.45-0.03,0.85-0.04,1.2-0.04c0.73,0,1.39,0.08,1.99,0.26c0.6,0.17,1.12,0.44,1.55,0.8c0.43,0.36,0.76,0.82,1,1.38
			C49.71,88.29,49.82,88.95,49.82,89.71z M44.04,92.76c0.09,0.01,0.21,0.01,0.36,0.02c0.15,0,0.35,0.01,0.61,0.01
			c1.06,0,1.85-0.27,2.37-0.81c0.52-0.54,0.78-1.29,0.78-2.26c0-0.98-0.25-1.74-0.76-2.26c-0.51-0.53-1.3-0.79-2.37-0.79
			c-0.47,0-0.8,0.01-1,0.04V92.76z"/>
		<path fill="#1D1D1B" d="M59.61,94.06c-0.12-0.34-0.24-0.68-0.36-1.01c-0.13-0.33-0.25-0.68-0.36-1.03h-3.66
			c-0.12,0.35-0.24,0.7-0.36,1.03c-0.12,0.34-0.24,0.67-0.36,1.01h-1.64c0.33-0.93,0.63-1.78,0.93-2.57
			c0.29-0.78,0.58-1.53,0.86-2.23c0.28-0.7,0.56-1.37,0.83-2c0.27-0.63,0.56-1.26,0.85-1.88h1.5c0.29,0.62,0.58,1.24,0.85,1.88
			c0.28,0.63,0.55,1.3,0.83,2c0.28,0.7,0.57,1.44,0.86,2.23c0.3,0.78,0.61,1.64,0.93,2.57H59.61z M57.05,87.06
			c-0.19,0.44-0.41,0.98-0.66,1.62c-0.25,0.63-0.5,1.32-0.77,2.06h2.85c-0.27-0.74-0.53-1.43-0.78-2.08S57.23,87.49,57.05,87.06z"/>
		<path fill="#1D1D1B" d="M68.55,94.25c-0.65,0-1.23-0.1-1.75-0.3c-0.52-0.2-0.96-0.49-1.31-0.88c-0.36-0.39-0.63-0.86-0.83-1.42
			c-0.19-0.56-0.29-1.2-0.29-1.93c0-0.73,0.11-1.37,0.33-1.93c0.22-0.56,0.52-1.03,0.91-1.42c0.38-0.39,0.83-0.68,1.35-0.88
			c0.52-0.2,1.07-0.3,1.66-0.3c0.36,0,0.68,0.03,0.98,0.08c0.29,0.05,0.55,0.11,0.76,0.18c0.22,0.07,0.4,0.14,0.54,0.21
			c0.14,0.08,0.24,0.13,0.3,0.16l-0.46,1.29c-0.2-0.12-0.49-0.24-0.86-0.36c-0.37-0.11-0.77-0.17-1.21-0.17
			c-0.38,0-0.73,0.06-1.05,0.19c-0.33,0.13-0.61,0.32-0.84,0.58c-0.24,0.26-0.42,0.58-0.56,0.98c-0.13,0.39-0.2,0.85-0.2,1.36
			c0,0.46,0.05,0.88,0.16,1.26c0.1,0.38,0.26,0.72,0.48,1c0.22,0.28,0.49,0.5,0.83,0.65c0.33,0.15,0.73,0.23,1.2,0.23
			c0.56,0,1.01-0.06,1.36-0.17c0.35-0.11,0.62-0.22,0.81-0.32l0.43,1.29c-0.1,0.07-0.24,0.13-0.41,0.2
			c-0.17,0.07-0.37,0.13-0.61,0.19c-0.23,0.06-0.5,0.11-0.79,0.15C69.19,94.23,68.88,94.25,68.55,94.25z"/>
		<path fill="#1D1D1B" d="M75.18,85.38h1.58v8.67h-1.58V85.38z"/>
		<path fill="#1D1D1B" d="M89.39,89.71c0,0.74-0.11,1.4-0.33,1.97c-0.22,0.57-0.52,1.04-0.9,1.42c-0.38,0.38-0.82,0.67-1.33,0.86
			c-0.51,0.19-1.05,0.29-1.63,0.29c-0.58,0-1.12-0.1-1.63-0.29c-0.51-0.19-0.96-0.48-1.34-0.86c-0.38-0.38-0.68-0.85-0.91-1.42
			c-0.23-0.57-0.34-1.22-0.34-1.97c0-0.74,0.11-1.39,0.34-1.96c0.23-0.56,0.53-1.04,0.92-1.42c0.39-0.38,0.84-0.67,1.35-0.86
			c0.51-0.19,1.05-0.29,1.61-0.29c0.57,0,1.11,0.1,1.61,0.29c0.51,0.19,0.95,0.48,1.33,0.86c0.38,0.38,0.68,0.86,0.91,1.42
			C89.28,88.32,89.39,88.97,89.39,89.71z M82.62,89.71c0,0.48,0.06,0.91,0.18,1.3c0.12,0.39,0.29,0.72,0.51,0.99
			c0.22,0.27,0.49,0.48,0.81,0.63c0.32,0.15,0.68,0.22,1.08,0.22c0.39,0,0.75-0.08,1.06-0.22c0.32-0.15,0.59-0.36,0.81-0.63
			c0.22-0.27,0.39-0.6,0.51-0.99c0.12-0.39,0.18-0.82,0.18-1.3s-0.06-0.91-0.18-1.29c-0.12-0.39-0.29-0.72-0.51-0.99
			c-0.22-0.27-0.49-0.48-0.81-0.63c-0.32-0.15-0.67-0.23-1.06-0.23c-0.4,0-0.76,0.08-1.08,0.23c-0.32,0.15-0.59,0.36-0.81,0.64
			s-0.39,0.61-0.51,0.99C82.68,88.81,82.62,89.24,82.62,89.71z M87.16,82.81l-2.04,1.98l-0.75-0.68l1.84-2.19L87.16,82.81z"/>
		<path fill="#1D1D1B" d="M99.47,94.06c-0.28-0.48-0.6-0.99-0.95-1.53c-0.35-0.55-0.71-1.1-1.09-1.65
			c-0.38-0.55-0.76-1.09-1.14-1.62c-0.39-0.52-0.76-0.99-1.11-1.41v6.21h-1.55v-8.67h1.29c0.33,0.35,0.69,0.77,1.08,1.25
			c0.38,0.48,0.77,0.98,1.16,1.5c0.39,0.52,0.76,1.04,1.13,1.56c0.36,0.52,0.69,1.01,0.97,1.46v-5.76h1.56v8.67H99.47z"/>
		<path fill="#1D1D1B" d="M118.17,89.71c0,0.75-0.12,1.4-0.35,1.96c-0.23,0.55-0.57,1.02-1,1.39c-0.43,0.37-0.95,0.65-1.55,0.83
			c-0.6,0.18-1.27,0.27-2.01,0.27c-0.35,0-0.75-0.01-1.19-0.04c-0.44-0.03-0.86-0.09-1.26-0.18v-8.42c0.4-0.09,0.83-0.15,1.28-0.18
			c0.45-0.03,0.85-0.04,1.2-0.04c0.73,0,1.39,0.08,1.99,0.26c0.6,0.17,1.12,0.44,1.55,0.8c0.43,0.36,0.76,0.82,1,1.38
			C118.05,88.29,118.17,88.95,118.17,89.71z M112.39,92.76c0.09,0.01,0.21,0.01,0.36,0.02c0.15,0,0.35,0.01,0.61,0.01
			c1.06,0,1.85-0.27,2.37-0.81c0.52-0.54,0.78-1.29,0.78-2.26c0-0.98-0.25-1.74-0.76-2.26c-0.51-0.53-1.3-0.79-2.37-0.79
			c-0.47,0-0.8,0.01-1,0.04V92.76z"/>
		<path fill="#1D1D1B" d="M122.4,94.06v-8.67h5.57v1.34h-3.99v2.14h3.55v1.31h-3.55v2.54h4.29v1.34H122.4z"/>
		<path fill="#1D1D1B" d="M143,85.38h1.58v8.67H143v-3.84h-3.77v3.84h-1.58v-8.67h1.58v3.47H143V85.38z"/>
		<path fill="#1D1D1B" d="M149.16,85.38h1.58v8.67h-1.58V85.38z"/>
		<path fill="#1D1D1B" d="M157.42,92.88c0.57,0,0.98-0.1,1.24-0.29c0.26-0.19,0.39-0.46,0.39-0.81c0-0.21-0.04-0.39-0.13-0.54
			c-0.09-0.15-0.21-0.29-0.38-0.41c-0.16-0.12-0.36-0.23-0.59-0.34c-0.23-0.1-0.5-0.21-0.8-0.31c-0.3-0.11-0.59-0.23-0.87-0.36
			c-0.28-0.13-0.53-0.29-0.74-0.48c-0.21-0.19-0.38-0.42-0.51-0.69c-0.13-0.27-0.19-0.59-0.19-0.96c0-0.78,0.27-1.4,0.81-1.85
			c0.54-0.45,1.28-0.67,2.21-0.67c0.54,0,1.02,0.06,1.45,0.18c0.42,0.12,0.75,0.25,0.99,0.39l-0.49,1.28
			c-0.28-0.16-0.6-0.28-0.93-0.36c-0.34-0.08-0.69-0.12-1.05-0.12c-0.43,0-0.76,0.09-0.99,0.26c-0.24,0.18-0.36,0.42-0.36,0.74
			c0,0.19,0.04,0.36,0.12,0.49c0.08,0.14,0.19,0.26,0.34,0.37s0.32,0.21,0.51,0.3c0.2,0.09,0.41,0.18,0.65,0.26
			c0.41,0.15,0.77,0.3,1.1,0.46c0.32,0.16,0.59,0.34,0.81,0.55c0.22,0.21,0.39,0.46,0.51,0.75c0.12,0.29,0.17,0.64,0.17,1.04
			c0,0.78-0.28,1.39-0.83,1.82c-0.55,0.43-1.37,0.65-2.43,0.65c-0.36,0-0.69-0.02-0.98-0.07c-0.3-0.05-0.56-0.1-0.79-0.17
			c-0.23-0.07-0.43-0.14-0.59-0.21c-0.17-0.07-0.3-0.14-0.4-0.19l0.46-1.29c0.22,0.12,0.53,0.25,0.91,0.38
			C156.41,92.82,156.87,92.88,157.42,92.88z"/>
		<path fill="#1D1D1B" d="M170.62,85.38v1.37h-2.67v7.31h-1.59v-7.31h-2.67v-1.37H170.62z"/>
		<path fill="#1D1D1B" d="M182.08,89.71c0,0.74-0.11,1.4-0.33,1.97c-0.22,0.57-0.52,1.04-0.9,1.42c-0.38,0.38-0.82,0.67-1.33,0.86
			c-0.51,0.19-1.05,0.29-1.63,0.29c-0.58,0-1.12-0.1-1.63-0.29c-0.51-0.19-0.96-0.48-1.34-0.86c-0.38-0.38-0.68-0.85-0.91-1.42
			c-0.22-0.57-0.34-1.22-0.34-1.97c0-0.74,0.11-1.39,0.34-1.96c0.23-0.56,0.53-1.04,0.92-1.42c0.39-0.38,0.84-0.67,1.34-0.86
			c0.51-0.19,1.05-0.29,1.62-0.29c0.57,0,1.11,0.1,1.61,0.29c0.51,0.19,0.95,0.48,1.33,0.86c0.38,0.38,0.68,0.86,0.91,1.42
			C181.97,88.32,182.08,88.97,182.08,89.71z M175.31,89.71c0,0.48,0.06,0.91,0.18,1.3c0.12,0.39,0.29,0.72,0.51,0.99
			c0.22,0.27,0.49,0.48,0.81,0.63c0.32,0.15,0.67,0.22,1.08,0.22c0.39,0,0.75-0.08,1.06-0.22c0.32-0.15,0.58-0.36,0.81-0.63
			c0.22-0.27,0.39-0.6,0.51-0.99c0.12-0.39,0.18-0.82,0.18-1.3s-0.06-0.91-0.18-1.29c-0.12-0.39-0.29-0.72-0.51-0.99
			c-0.22-0.27-0.49-0.48-0.81-0.63c-0.32-0.15-0.67-0.23-1.06-0.23c-0.4,0-0.76,0.08-1.08,0.23c-0.32,0.15-0.59,0.36-0.81,0.64
			c-0.22,0.28-0.39,0.61-0.51,0.99C175.37,88.81,175.31,89.24,175.31,89.71z"/>
		<path fill="#1D1D1B" d="M188.7,85.3c1.25,0,2.21,0.23,2.87,0.69c0.66,0.46,1,1.16,1,2.1c0,1.18-0.58,1.97-1.74,2.39
			c0.16,0.19,0.34,0.43,0.54,0.7c0.2,0.27,0.4,0.57,0.61,0.89c0.21,0.32,0.41,0.65,0.6,0.99c0.19,0.34,0.36,0.67,0.51,0.99h-1.76
			c-0.16-0.3-0.33-0.6-0.51-0.91c-0.18-0.3-0.37-0.6-0.56-0.89c-0.19-0.29-0.37-0.56-0.56-0.81c-0.18-0.25-0.36-0.48-0.51-0.68
			c-0.12,0.01-0.22,0.01-0.3,0.01s-0.16,0-0.24,0h-0.76v3.28h-1.58v-8.55c0.38-0.08,0.79-0.14,1.23-0.17
			C187.97,85.31,188.36,85.3,188.7,85.3z M188.82,86.66c-0.33,0-0.64,0.01-0.93,0.04v2.8h0.69c0.38,0,0.72-0.02,1.01-0.06
			c0.29-0.04,0.54-0.12,0.73-0.22c0.2-0.11,0.34-0.25,0.44-0.44c0.1-0.18,0.15-0.42,0.15-0.7c0-0.27-0.05-0.49-0.15-0.68
			c-0.1-0.18-0.24-0.33-0.43-0.44s-0.41-0.19-0.67-0.23C189.41,86.68,189.12,86.66,188.82,86.66z"/>
		<path fill="#1D1D1B" d="M196.83,85.38h1.58v8.67h-1.58V85.38z"/>
		<path fill="#1D1D1B" d="M208.75,94.06c-0.12-0.34-0.24-0.68-0.36-1.01c-0.13-0.33-0.25-0.68-0.36-1.03h-3.66
			c-0.12,0.35-0.24,0.7-0.36,1.03c-0.12,0.34-0.24,0.67-0.36,1.01h-1.64c0.32-0.93,0.63-1.78,0.92-2.57
			c0.29-0.78,0.58-1.53,0.86-2.23c0.28-0.7,0.56-1.37,0.83-2c0.28-0.63,0.56-1.26,0.85-1.88h1.51c0.29,0.62,0.58,1.24,0.85,1.88
			c0.27,0.63,0.55,1.3,0.83,2c0.28,0.7,0.57,1.44,0.86,2.23c0.3,0.78,0.61,1.64,0.93,2.57H208.75z M206.19,87.06
			c-0.19,0.44-0.41,0.98-0.66,1.62c-0.25,0.63-0.5,1.32-0.77,2.06h2.85c-0.27-0.74-0.53-1.43-0.78-2.08
			C206.59,88.02,206.38,87.49,206.19,87.06z"/>
		<path fill="#1D1D1B" d="M225.31,94.06c-0.29-0.48-0.6-0.99-0.95-1.53c-0.35-0.55-0.71-1.1-1.09-1.65
			c-0.38-0.55-0.76-1.09-1.15-1.62c-0.39-0.52-0.76-0.99-1.11-1.41v6.21h-1.55v-8.67h1.29c0.33,0.35,0.69,0.77,1.08,1.25
			c0.38,0.48,0.77,0.98,1.16,1.5c0.39,0.52,0.76,1.04,1.13,1.56c0.36,0.52,0.69,1.01,0.97,1.46v-5.76h1.56v8.67H225.31z"/>
		<path fill="#1D1D1B" d="M237,94.06c-0.12-0.34-0.24-0.68-0.37-1.01c-0.12-0.33-0.25-0.68-0.36-1.03h-3.66
			c-0.12,0.35-0.24,0.7-0.36,1.03c-0.12,0.34-0.24,0.67-0.36,1.01h-1.64c0.32-0.93,0.63-1.78,0.92-2.57
			c0.29-0.78,0.58-1.53,0.86-2.23c0.28-0.7,0.56-1.37,0.83-2c0.27-0.63,0.56-1.26,0.85-1.88h1.51c0.29,0.62,0.57,1.24,0.85,1.88
			c0.28,0.63,0.55,1.3,0.83,2c0.28,0.7,0.57,1.44,0.86,2.23c0.3,0.78,0.61,1.64,0.93,2.57H237z M234.44,87.06
			c-0.19,0.44-0.41,0.98-0.66,1.62c-0.25,0.63-0.5,1.32-0.77,2.06h2.85c-0.27-0.74-0.53-1.43-0.78-2.08S234.62,87.49,234.44,87.06z"
			/>
		<path fill="#1D1D1B" d="M247.62,85.38v1.37h-2.67v7.31h-1.59v-7.31h-2.67v-1.37H247.62z"/>
		<path fill="#1D1D1B" d="M254.67,94.25c-0.59,0-1.1-0.09-1.53-0.26c-0.42-0.17-0.78-0.41-1.06-0.72c-0.28-0.31-0.49-0.67-0.62-1.09
			c-0.13-0.42-0.2-0.88-0.2-1.38v-5.42h1.59v5.27c0,0.39,0.04,0.73,0.13,1.01c0.09,0.28,0.21,0.51,0.38,0.68
			c0.16,0.17,0.35,0.3,0.58,0.39c0.22,0.08,0.47,0.12,0.74,0.12c0.28,0,0.53-0.04,0.75-0.12c0.22-0.08,0.42-0.21,0.58-0.39
			c0.16-0.18,0.29-0.4,0.38-0.68c0.09-0.28,0.13-0.62,0.13-1.01v-5.27h1.59v5.42c0,0.5-0.07,0.96-0.21,1.38
			c-0.14,0.42-0.35,0.78-0.62,1.09c-0.28,0.31-0.64,0.55-1.07,0.72C255.78,94.16,255.26,94.25,254.67,94.25z"/>
		<path fill="#1D1D1B" d="M265.02,85.3c1.25,0,2.21,0.23,2.87,0.69c0.66,0.46,1,1.16,1,2.1c0,1.18-0.58,1.97-1.74,2.39
			c0.16,0.19,0.34,0.43,0.54,0.7c0.2,0.27,0.41,0.57,0.61,0.89c0.21,0.32,0.41,0.65,0.6,0.99c0.19,0.34,0.36,0.67,0.51,0.99h-1.76
			c-0.16-0.3-0.33-0.6-0.51-0.91c-0.18-0.3-0.37-0.6-0.56-0.89c-0.19-0.29-0.37-0.56-0.56-0.81c-0.18-0.25-0.36-0.48-0.51-0.68
			c-0.12,0.01-0.22,0.01-0.3,0.01c-0.08,0-0.16,0-0.24,0h-0.76v3.28h-1.58v-8.55c0.38-0.08,0.79-0.14,1.23-0.17
			C264.29,85.31,264.68,85.3,265.02,85.3z M265.13,86.66c-0.33,0-0.64,0.01-0.92,0.04v2.8h0.69c0.38,0,0.72-0.02,1.01-0.06
			c0.29-0.04,0.54-0.12,0.73-0.22c0.2-0.11,0.34-0.25,0.44-0.44c0.1-0.18,0.15-0.42,0.15-0.7c0-0.27-0.05-0.49-0.15-0.68
			c-0.1-0.18-0.24-0.33-0.43-0.44c-0.19-0.11-0.41-0.19-0.67-0.23C265.72,86.68,265.44,86.66,265.13,86.66z"/>
		<path fill="#1D1D1B" d="M279.22,94.06c-0.12-0.34-0.24-0.68-0.36-1.01c-0.13-0.33-0.25-0.68-0.37-1.03h-3.66
			c-0.12,0.35-0.24,0.7-0.36,1.03c-0.12,0.34-0.24,0.67-0.36,1.01h-1.64c0.32-0.93,0.63-1.78,0.92-2.57
			c0.29-0.78,0.58-1.53,0.86-2.23c0.28-0.7,0.56-1.37,0.83-2c0.27-0.63,0.56-1.26,0.85-1.88h1.51c0.29,0.62,0.58,1.24,0.85,1.88
			c0.28,0.63,0.55,1.3,0.83,2c0.28,0.7,0.57,1.44,0.86,2.23c0.3,0.78,0.61,1.64,0.93,2.57H279.22z M276.67,87.06
			c-0.19,0.44-0.41,0.98-0.66,1.62c-0.25,0.63-0.5,1.32-0.77,2.06h2.85c-0.27-0.74-0.53-1.43-0.78-2.08
			C277.06,88.02,276.85,87.49,276.67,87.06z"/>
		<path fill="#1D1D1B" d="M290,92.69v1.36h-5.48v-8.67h1.58v7.31H290z"/>
	</g>
	<g>
		<rect x="10" y="73.89" fill="#1D1D1B" width="280" height="1.92"/>
		<path fill="#1D1D1B" d="M113.81,13c-1.32,1.5-2.86,3.29-4.61,5.39c-1.75,2.1-3.61,4.43-5.57,6.99c-1.96,2.56-3.97,5.26-6.04,8.11
			c-2.07,2.85-4.1,5.72-6.08,8.63c-1.98,2.91-3.87,5.8-5.65,8.67c-1.78,2.88-3.39,5.61-4.83,8.2h33.65v7.16H71.28v-5.61
			c1.21-2.3,2.63-4.83,4.27-7.59c1.64-2.76,3.39-5.58,5.26-8.45c1.87-2.88,3.81-5.78,5.82-8.71c2.01-2.93,4.01-5.75,6-8.46
			c1.98-2.7,3.91-5.23,5.78-7.59c1.87-2.36,3.58-4.43,5.13-6.21H72.83V6.36h40.98V13z"/>
		<path fill="#1D1D1B" d="M213.19,41.13c0.92,1.15,2.08,2.66,3.5,4.53c1.41,1.87,2.86,3.94,4.36,6.21c1.49,2.27,2.97,4.64,4.44,7.12
			c1.47,2.47,2.72,4.86,3.75,7.16h-9.15c-1.15-2.19-2.4-4.4-3.75-6.64c-1.35-2.24-2.72-4.38-4.1-6.43c-1.38-2.04-2.75-3.95-4.1-5.74
			c-1.35-1.78-2.58-3.34-3.67-4.66c-0.75,0.06-1.51,0.09-2.29,0.09c-0.78,0-1.57,0-2.37,0h-7.51v23.38h-8.37V7.22
			c2.36-0.58,4.99-0.96,7.89-1.17c2.91-0.2,5.57-0.3,7.98-0.3c8.4,0,14.8,1.58,19.2,4.74c4.4,3.16,6.6,7.88,6.6,14.15
			c0,3.97-1.05,7.36-3.15,10.18C220.37,37.65,217.28,39.75,213.19,41.13z M200.51,13.09c-3.57,0-6.3,0.09-8.2,0.26v22.52h5.95
			c2.88,0,5.46-0.14,7.77-0.43c2.3-0.29,4.24-0.83,5.82-1.64c1.58-0.8,2.8-1.94,3.67-3.41c0.86-1.47,1.29-3.41,1.29-5.82
			c0-2.24-0.43-4.11-1.29-5.61c-0.86-1.5-2.03-2.67-3.49-3.54c-1.47-0.86-3.19-1.47-5.18-1.81
			C204.87,13.26,202.76,13.09,200.51,13.09z"/>
		<path fill="#1D1D1B" d="M56.96,65.54c-0.98-2.59-1.9-5.13-2.76-7.63c-0.86-2.5-1.76-5.05-2.67-7.64H24.43L19,65.54h-8.71
			c2.3-6.33,4.46-12.18,6.47-17.56c2.01-5.38,3.98-10.48,5.91-15.31c1.93-4.83,3.84-9.45,5.74-13.85c1.9-4.4,3.88-8.76,5.95-13.07
			h7.68c2.07,4.31,4.05,8.67,5.95,13.07c1.9,4.4,3.81,9.01,5.74,13.85c1.93,4.83,3.9,9.94,5.91,15.31
			c2.01,5.38,4.17,11.23,6.47,17.56H56.96z M49.1,43.37c-1.84-5-3.67-9.85-5.48-14.54c-1.81-4.69-3.7-9.19-5.65-13.5
			c-2.01,4.31-3.93,8.81-5.74,13.5c-1.81,4.69-3.61,9.53-5.39,14.54H49.1z"/>
		<path fill="#1D1D1B" d="M280.79,65.54c-0.98-2.59-1.9-5.13-2.76-7.63c-0.87-2.5-1.76-5.05-2.68-7.64h-27.09l-5.44,15.27h-8.71
			c2.3-6.33,4.46-12.18,6.47-17.56c2.01-5.38,3.98-10.48,5.91-15.31c1.93-4.83,3.84-9.45,5.74-13.85c1.9-4.4,3.88-8.76,5.95-13.07
			h7.68c2.07,4.31,4.05,8.67,5.95,13.07c1.9,4.4,3.81,9.01,5.74,13.85c1.93,4.83,3.9,9.94,5.91,15.31
			c2.01,5.38,4.17,11.23,6.47,17.56H280.79z M272.94,43.37c-1.84-5-3.66-9.85-5.48-14.54s-3.7-9.19-5.65-13.5
			c-2.02,4.31-3.93,8.81-5.74,13.5c-1.81,4.69-3.61,9.53-5.39,14.54H272.94z"/>
		<path fill="#1D1D1B" d="M166.47,65.54c-0.98-2.59-1.9-5.13-2.76-7.63c-0.86-2.5-1.75-5.05-2.67-7.64h-27.09l-5.44,15.27h-8.71
			c2.3-6.33,4.46-12.18,6.47-17.56c2.01-5.38,3.98-10.48,5.91-15.31c1.93-4.83,3.84-9.45,5.74-13.85c1.9-4.4,3.88-8.76,5.95-13.07
			h7.68c2.07,4.31,4.06,8.67,5.95,13.07c1.9,4.4,3.81,9.01,5.74,13.85c1.93,4.83,3.9,9.94,5.91,15.31
			c2.01,5.38,4.17,11.23,6.47,17.56H166.47z M158.62,43.37c-1.84-5-3.67-9.85-5.48-14.54c-1.81-4.69-3.7-9.19-5.65-13.5
			c-2.01,4.31-3.93,8.81-5.74,13.5c-1.81,4.69-3.61,9.53-5.39,14.54H158.62z"/>
		<rect x="10" y="72.25" fill="#A9B400" width="56.59" height="5.2"/>
		<rect x="119.84" y="72.25" fill="#D29600" width="56.59" height="5.2"/>
		<rect x="233.41" y="72.25" fill="#E20613" width="56.59" height="5.2"/>
	</g>
</g>
</svg>
