<svg width="162" height="51" viewBox="0 0 162 51" fill="none" xmlns="http://www.w3.org/2000/svg">
<path d="M20.3442 7.03906C16.7733 7.43569 13.268 7.73317 9.66431 7.73317C6.91244 7.73317 4.12781 7.70011 1.44146 7.03906L0 13.3852C2.16219 13.0546 4.25885 12.658 6.42103 12.4927C6.84692 14.7073 7.04348 16.9218 7.04348 19.2024C7.04348 23.1687 6.74864 27.2011 5.76583 31.0683L14.7422 30.2089C13.6283 26.4409 13.0386 22.5407 13.0386 18.6075C13.0386 16.5582 13.2024 14.5089 13.4973 12.4927C15.2991 12.658 17.0682 12.8894 18.8045 13.2529L20.3442 7.03906Z" fill="#A44138"/>
<path d="M33.0229 27.0698C30.0418 26.2435 26.4381 24.3265 24.9967 21.3848C26.995 21.4839 28.9934 21.7153 30.9263 22.0458L31.1884 16.3608C29.9435 16.7574 27.2244 16.8566 25.9139 16.9888C27.5192 14.8404 30.3366 13.353 32.8264 12.4275L31.7453 6.80859C26.9623 7.93238 17.7238 14.9065 17.9859 20.3932C18.2153 25.8799 26.995 30.7056 31.5815 32.0277L33.0229 27.0698Z" fill="#877368"/>
<path d="M43.1455 6.8762L34.6934 7.5703C35.6762 11.3713 36.5607 15.2385 36.5607 19.2048C36.5607 23.2372 36.2659 27.2366 35.283 31.1037L44.2266 30.2444C43.1128 26.4764 42.5231 22.5762 42.5231 18.6099C42.5231 17.8166 42.5559 17.0233 42.6214 16.197C44.8818 19.3701 46.7819 22.7745 48.2889 26.3111C49.5011 22.8736 51.0408 19.5353 53.0064 16.4284C53.1047 17.3539 53.1375 18.2463 53.1375 19.1718C53.1375 23.2042 52.8426 27.2035 51.8598 31.0707L60.8362 30.2113C59.7223 26.4433 59.1326 22.5431 59.1326 18.5768C59.1326 14.6105 59.8861 10.6442 60.5085 6.71094H51.7943C50.7787 8.69409 49.3373 11.4044 48.0268 13.2223L43.1455 6.8762Z" fill="#AFAB89"/>
<path d="M75.6772 21.9483C75.0219 21.9483 74.3012 21.9483 73.6788 21.8492C74.3995 20.4609 74.9564 18.9736 75.7099 17.6515C76.4306 19.0066 76.9876 20.4279 77.6428 21.8161C77.0203 21.9483 76.2996 21.9483 75.6772 21.9483ZM77.7083 5.45508L69.5837 8.59507C70.3044 9.42139 70.9597 10.2146 71.6149 11.1071C69.6165 17.2879 66.2749 23.667 62.0488 28.6249L70.5665 31.3683C70.8941 29.4843 71.4838 27.6995 72.1063 25.8816C73.3184 25.6832 74.5305 25.518 75.7427 25.518C76.9876 25.518 78.1997 25.6171 79.4118 25.8155C80.2308 27.6995 80.9188 29.6165 81.3775 31.6327L89.0106 27.402C84.2931 21.3203 80.0998 12.8258 77.7083 5.45508Z" fill="#877368"/>
<path d="M99.0348 30.2426C97.9209 26.4746 97.364 22.5744 97.364 18.6081C97.364 14.6418 98.0847 10.6754 98.7072 6.74219L89.4688 7.5685C90.4516 11.3695 91.3361 15.2367 91.3361 19.203C91.3361 23.2354 91.0413 27.2348 90.0584 31.1019L99.0348 30.2426Z" fill="#887D6D"/>
<path d="M124.979 27.8296C121.277 25.2845 118.394 21.6818 115.61 18.1452C115.446 17.9469 115.249 17.6824 115.085 17.4511C117.248 14.7077 119.377 11.9974 121.736 9.4854L114.561 6.2793C113.087 9.25403 111.482 12.2288 109.516 14.906C109.811 12.1627 110.27 9.41929 110.663 6.74203L101.457 7.53529C102.44 11.3694 103.324 15.2365 103.324 19.2359C103.324 23.2022 103.03 27.2677 102.014 31.1348L110.99 30.2755C110.433 28.3915 109.975 26.4744 109.68 24.5243L110.827 22.8056C113.218 25.6481 115.446 28.5898 117.084 31.9281L124.979 27.8296Z" fill="#AFAB89"/>
<path d="M162 30.2756C160.886 26.5076 160.296 22.5744 160.296 18.6081C160.296 14.6418 161.05 10.6754 161.672 6.74219L152.434 7.5685C153.286 10.8407 154.039 14.179 154.236 17.5834C151.582 14.2782 149.453 10.5763 147.585 6.80829L139.592 7.5685C140.575 11.3695 141.459 15.2367 141.459 19.203C141.459 23.2354 141.164 27.2348 140.149 31.1019L149.125 30.2426C148.011 26.4746 147.422 22.5413 147.422 18.575C150.665 22.1447 153.613 26.3424 155.612 30.7714L162 30.2756Z" fill="#877368"/>
<path d="M136.773 5.45367L132.514 0L126.453 1.52042L133.136 6.87493L136.773 5.45367Z" fill="#A44138"/>
<path d="M137.791 27.0698C134.809 26.2435 131.206 24.3265 129.764 21.3848C131.763 21.4839 133.761 21.7153 135.694 22.0458L135.956 16.3608C134.711 16.7574 131.992 16.8566 130.682 16.9888C132.287 14.8404 135.104 13.353 137.594 12.4275L136.513 6.80859C131.73 7.93238 122.491 14.9065 122.754 20.3932C122.983 25.8799 131.763 30.7056 136.349 32.0277L137.791 27.0698Z" fill="#A44138"/>
<path d="M79.8355 46.5042C79.6389 46.5042 79.4096 46.5042 79.213 46.4711C79.4423 46.0414 79.6061 45.5787 79.8355 45.1821C80.0648 45.6117 80.2286 46.0414 80.4252 46.4711C80.2613 46.5042 80.032 46.5042 79.8355 46.5042ZM80.4907 41.4141L77.9681 42.3726C78.1974 42.637 78.394 42.8684 78.5906 43.1658C77.9681 45.0829 76.9198 47.0661 75.6094 48.5865L78.263 49.4458C78.3612 48.8509 78.5578 48.322 78.7544 47.7602C79.1147 47.694 79.5079 47.661 79.8682 47.661C80.2613 47.661 80.6217 47.694 81.0148 47.7602C81.2769 48.3551 81.4735 48.95 81.6373 49.578L83.996 48.2559C82.5218 46.3058 81.2114 43.6947 80.4907 41.4141Z" fill="#877368"/>
<path d="M53.0397 47.2309C52.9742 46.702 52.9414 46.1732 52.9414 45.6443C53.1052 45.8096 54.088 46.5037 54.088 46.669C54.088 46.8673 53.2035 47.1648 53.0397 47.2309ZM53.0397 43.6281C53.2035 43.6942 53.9242 43.9917 53.9242 44.157C53.9242 44.5206 53.2362 44.785 52.9414 44.8841C52.9742 44.4875 52.9742 44.0578 53.0397 43.6281ZM55.2674 45.1486C55.6605 44.8841 56.0536 44.5206 56.0536 44.0248C56.0536 43.0332 53.7932 42.0416 53.0069 41.7441C52.1552 41.8102 51.3361 41.8764 50.4844 41.9425C50.7792 43.1324 51.0741 44.3222 51.0741 45.5782C51.0741 46.9995 50.9758 48.4208 50.6154 49.809C51.6965 49.4784 52.8104 49.181 53.8587 48.7843C54.5794 48.4869 56.8399 47.4622 56.8399 46.5368C56.7744 45.8757 55.7916 45.3799 55.2674 45.1486Z" fill="#877368"/>
<path d="M113.516 48.0582C112.5 47.7277 111.288 47.0005 110.829 45.9759C111.517 46.042 112.205 46.1412 112.86 46.3064L112.565 44.2902C112.14 44.4224 111.681 44.4555 111.222 44.4886C111.812 43.7614 112.631 43.2987 113.516 43.0342L112.565 41.5469C110.993 42.0757 108.307 43.6622 108.307 45.5793C108.307 47.4633 111.026 49.0829 112.565 49.6117L113.516 48.0582Z" fill="#877368"/>
<path d="M60.6066 48.9825C60.2463 47.8257 60.0825 46.6027 60.0825 45.3798C60.0825 44.1568 60.3118 42.9339 60.5084 41.7109L57.6582 41.9754C57.953 43.1652 58.2479 44.3551 58.2479 45.5781C58.2479 46.8341 58.1496 48.057 57.8548 49.28L60.6066 48.9825Z" fill="#877368"/>
<path d="M91.3686 48.0901C90.9427 47.7926 89.0426 46.1069 88.9116 45.7103C89.2719 45.4459 89.9271 44.3882 89.9271 43.9585C89.9271 43 87.6994 41.9754 86.9132 41.7109C86.0614 41.777 85.2424 41.8431 84.3906 41.9092C84.6855 43.0991 84.9803 44.289 84.9803 45.512C84.9803 46.7349 84.882 47.9909 84.5872 49.2139L87.3718 48.9494C87.0442 47.7926 86.8477 46.5697 86.8477 45.3467C86.8477 44.7518 86.8804 44.1899 86.9787 43.628C87.2735 43.7602 87.7322 43.9916 87.7322 44.3882C87.7322 44.7518 87.2408 45.4459 87.0442 45.7433C87.6667 47.1316 88.3546 48.3545 89.5012 49.3461C90.1237 48.9494 90.7789 48.5528 91.3686 48.0901Z" fill="#877368"/>
<path d="M104.572 41.9754C104.867 43.1322 105.162 44.3221 105.162 45.545C105.162 46.3383 104.572 47.1316 103.917 47.5943C103.262 47.1316 102.639 46.2391 102.639 45.4128C102.639 44.1899 102.868 42.9339 103.065 41.7109L100.215 41.9754C100.51 43.1652 100.805 44.3551 100.805 45.5781C100.805 47.396 102.312 48.9494 103.917 49.5113C105.555 48.9494 106.996 47.2638 106.996 45.4789C106.996 44.2229 107.226 42.9669 107.422 41.7109L104.572 41.9754Z" fill="#877368"/>
<path d="M65.4877 47.5937C64.8653 47.164 64.1445 46.3377 64.1445 45.5444C64.1445 44.7512 64.8653 43.9249 65.4877 43.4952C66.1101 43.9249 66.8309 44.7512 66.8309 45.5444C66.8309 46.3377 66.1101 47.164 65.4877 47.5937ZM65.4877 41.5781C63.9152 42.107 61.6875 43.7265 61.6875 45.5444C61.6875 47.3954 63.9152 48.9819 65.4877 49.5107C67.0274 48.9819 69.2879 47.3623 69.2879 45.5444C69.2551 43.6935 67.0274 42.107 65.4877 41.5781Z" fill="#877368"/>
<path d="M72.5961 45.0163C72.6289 44.5536 72.6617 44.0909 72.7272 43.6281C72.8582 43.6942 73.3824 43.9587 73.3824 44.1239C73.3824 44.4214 72.8255 44.8511 72.5961 45.0163ZM72.6944 41.7441C71.8427 41.8102 71.0236 41.8764 70.1719 41.9425C70.4667 43.1324 70.7616 44.3222 70.7616 45.5452C70.7616 46.8012 70.6633 48.0241 70.3684 49.2471L73.1531 48.9827C72.8255 47.8919 72.6617 46.8012 72.6289 45.6774C72.8255 46.0079 73.0548 46.3054 73.2841 46.6029C73.841 46.2062 75.7411 44.6858 75.7411 44.0248C75.7084 43.0001 73.4807 42.0086 72.6944 41.7441Z" fill="#877368"/>
<path d="M95.5307 47.6285C94.8755 47.1989 94.1875 46.3725 94.1875 45.5462C94.1875 44.7199 94.8755 43.8936 95.5307 43.4639C96.1531 43.8936 96.8739 44.7199 96.8739 45.5462C96.8739 46.3725 96.1531 47.1989 95.5307 47.6285ZM99.3309 45.5793C99.3309 43.7283 97.1032 42.1088 95.5307 41.5469C93.9582 42.0757 91.7305 43.7283 91.7305 45.5793C91.7305 47.4302 93.9582 49.0498 95.5307 49.6117L95.7272 49.5456C96.3824 49.9092 97.1032 50.438 97.6273 50.9999L99.1998 49.4134C98.6757 49.2812 97.6601 49.0498 97.267 48.7523C98.217 48.0252 99.3309 46.8683 99.3309 45.5793Z" fill="#877368"/>
</svg>
