<?xml version="1.0" encoding="UTF-8"?>
<svg id="Capa_1" data-name="Capa 1" xmlns="http://www.w3.org/2000/svg" width="78.5" height="78.5" viewBox="0 0 78.5 78.5">
  <defs>
    <style>
      .cls-1 {
        fill: #c65e10;
      }

      .cls-2 {
        fill: none;
        stroke: #c65e10;
        stroke-linecap: round;
        stroke-miterlimit: 10;
        stroke-width: 3.5px;
      }
    </style>
  </defs>
  <path class="cls-2" d="M64.87,11.99c7.83,6.87,11.88,16.02,11.88,27.26,0,20.71-16.79,37.5-37.5,37.5S1.75,59.96,1.75,39.25,18.54,1.75,39.25,1.75c4.18,.13,5.95,.33,10.81,1.71"/>
  <path class="cls-1" d="M53.9,5.91c.16,.9,1.09,1.56,1.99,1.4,.9-.16,1.56-1.09,1.4-1.99s-.98-1.58-1.99-1.4c-1.02,.18-1.56,1.09-1.4,1.99Z"/>
  <g>
    <path class="cls-1" d="M8.51,26.46l7.12,5.53-.64,1.79-9.01-.25,.6-1.66,5.32,.26c.09,0,.26,.01,.5,.04s.5,.05,.76,.08,.49,.06,.66,.1c-.16-.08-.35-.19-.58-.33-.23-.14-.44-.28-.64-.42-.2-.14-.34-.23-.42-.28l-4.28-3.19,.59-1.66Z"/>
    <path class="cls-1" d="M17.69,20.43c.54,.39,.98,.81,1.32,1.25,.34,.44,.58,.91,.71,1.4s.14,.99,.02,1.52c-.12,.52-.38,1.06-.78,1.61-.39,.54-.82,.95-1.28,1.24-.46,.28-.94,.44-1.45,.46-.5,.03-1.02-.05-1.55-.24-.53-.19-1.07-.48-1.61-.87-.72-.52-1.26-1.09-1.63-1.7-.37-.61-.53-1.26-.48-1.95,.05-.68,.33-1.39,.86-2.12,.52-.72,1.1-1.21,1.74-1.47s1.3-.31,2-.14,1.41,.5,2.13,1.02Zm-3.51,4.86c.48,.35,.94,.59,1.37,.73s.83,.15,1.2,.03c.37-.12,.69-.37,.97-.75,.29-.4,.43-.79,.42-1.17,0-.38-.14-.75-.41-1.12-.27-.37-.64-.72-1.12-1.07-.73-.52-1.39-.81-1.99-.85-.6-.04-1.12,.23-1.55,.83-.28,.39-.42,.78-.42,1.17,0,.39,.14,.76,.41,1.13,.26,.37,.64,.73,1.12,1.08Z"/>
    <path class="cls-1" d="M22.1,22.29l-5.33-6.71,1.38-1.1,4.39,5.53,2.61-2.08,.94,1.18-4,3.18Z"/>
    <path class="cls-1" d="M31.74,13.26c.23,.55,.32,1.09,.28,1.62-.05,.54-.25,1.03-.6,1.48-.36,.45-.89,.83-1.6,1.13-1.01,.43-1.89,.48-2.64,.17-.75-.31-1.31-.91-1.68-1.78l-2.15-5.08,1.61-.68,2.04,4.83c.27,.65,.59,1.05,.96,1.21,.37,.16,.8,.13,1.31-.08,.35-.15,.62-.33,.78-.55,.17-.22,.25-.48,.24-.79,0-.31-.1-.67-.27-1.07l-2.04-4.82,1.61-.68,2.16,5.11Z"/>
    <path class="cls-1" d="M41.57,15.22l-2.21,.14-4-6.24h-.05c.03,.27,.06,.54,.09,.81,.03,.27,.06,.54,.09,.81,.03,.27,.06,.54,.08,.81l.26,4.02-1.56,.1-.54-8.55,2.2-.14,3.98,6.18h.03c-.02-.27-.05-.53-.07-.79-.02-.26-.05-.52-.08-.78-.03-.26-.05-.52-.08-.78l-.26-4.05,1.57-.1,.54,8.55Z"/>
    <path class="cls-1" d="M46.17,16.28l-1.72-.41,1.63-6.85-2.17-.52,.35-1.48,6.06,1.44-.35,1.48-2.17-.52-1.63,6.85Z"/>
    <path class="cls-1" d="M52.82,19.12l.36-2.08-2.59-1.33-1.49,1.5-1.7-.87,6.51-6.33,1.93,.99-1.33,8.99-1.7-.87Zm1.04-5.55c.03-.12,.07-.3,.12-.55s.11-.49,.17-.74c.06-.25,.11-.46,.15-.62-.11,.15-.25,.32-.41,.5s-.32,.37-.47,.54-.28,.32-.38,.44l-1.38,1.38,1.86,.96,.34-1.92Z"/>
    <path class="cls-1" d="M62.52,15.91c.53,.5,.9,.98,1.12,1.44s.29,.91,.21,1.34c-.08,.43-.31,.84-.69,1.25-.26,.28-.54,.48-.84,.61-.3,.13-.6,.19-.91,.19-.3,0-.61-.05-.91-.15l-.88,4.36-1.47-1.39,.92-3.65-.71-.67-2.25,2.39-1.29-1.21,5.87-6.24,1.84,1.73Zm-1,1.02l-.53-.5-1.67,1.77,.53,.5c.34,.32,.67,.5,1,.53,.32,.03,.64-.12,.95-.46,.18-.19,.28-.38,.32-.57,.04-.19,.01-.4-.08-.61-.1-.21-.27-.43-.52-.67Z"/>
    <path class="cls-1" d="M61.57,28.12l-2.14-3.09,.85-.59,.97,.55,4.56-3.16-.18-1.1,.85-.59,2.14,3.09-.85,.59-.97-.55-4.56,3.16,.18,1.1-.85,.59Z"/>
    <path class="cls-1" d="M68.89,34.27c-.62,.24-1.21,.39-1.77,.43-.56,.05-1.08,0-1.56-.16s-.91-.43-1.28-.81c-.37-.38-.68-.89-.93-1.52-.24-.62-.36-1.21-.34-1.74,.01-.54,.15-1.03,.4-1.47,.25-.44,.6-.83,1.04-1.17s.98-.64,1.61-.88c.83-.32,1.6-.47,2.31-.45,.71,.02,1.34,.24,1.89,.65,.55,.41,.99,1.03,1.32,1.87,.32,.83,.42,1.59,.29,2.26s-.45,1.26-.96,1.76-1.19,.91-2.01,1.23Zm-2.17-5.59c-.55,.21-1,.47-1.35,.76-.35,.29-.58,.62-.68,.99-.1,.37-.07,.78,.11,1.22,.18,.46,.43,.79,.75,.99,.32,.2,.71,.29,1.16,.26,.45-.03,.96-.15,1.51-.36,.83-.32,1.43-.73,1.8-1.21,.36-.48,.41-1.06,.14-1.75-.18-.45-.43-.78-.76-.98-.33-.2-.72-.29-1.17-.27s-.96,.14-1.51,.36Z"/>
  </g>
  <g>
    <path class="cls-1" d="M27.43,69.64l-4.44-2.15,3.74-7.71,4.44,2.15-.65,1.34-2.81-1.36-.82,1.69,2.61,1.27-.65,1.34-2.61-1.27-.96,1.99,2.81,1.36-.66,1.35Z"/>
    <path class="cls-1" d="M30.28,70.58l1.78-8.38,1.8,.38-1.46,6.9,3.39,.72-.31,1.48-5.19-1.1Z"/>
    <path class="cls-1" d="M41.15,71.81l-3.9-.06,.02-1.03,1.05-.46,.09-5.54-1.04-.5,.02-1.03,3.9,.06-.02,1.03-1.05,.46-.09,5.54,1.04,.5-.02,1.03Z"/>
    <path class="cls-1" d="M46.94,70.94l-1.8,.37-1.4-6.9-2.27,.46-.3-1.49,6.34-1.29,.3,1.49-2.27,.46,1.4,6.9Z"/>
    <path class="cls-1" d="M56.1,67.4l-4.45,2.13-3.71-7.72,4.45-2.13,.64,1.34-2.81,1.35,.81,1.7,2.62-1.26,.64,1.34-2.62,1.26,.96,1.99,2.81-1.35,.65,1.35Z"/>
  </g>
  <path class="cls-1" d="M58.85,8.73c.16,.9,1.09,1.56,1.99,1.4,.9-.16,1.56-1.09,1.4-1.99s-.98-1.58-1.99-1.4c-1.02,.18-1.56,1.09-1.4,1.99Z"/>
  <path class="cls-1" d="M30.36,51.36c-.14,.78,.63,1.38,1.31,1.04l7.68-3.95,7.68,3.95c.68,.35,1.44-.26,1.31-1.04l-1.45-8.28,6.16-5.87c.58-.55,.28-1.55-.49-1.66l-8.57-1.22-3.82-7.57c-.21-.45-.75-.64-1.2-.43-.19,.09-.34,.24-.43,.43l-3.82,7.57-8.57,1.22c-.77,.11-1.07,1.11-.5,1.66l6.17,5.87-1.45,8.28h0Zm8.58-4.85l-6.45,3.31,1.21-6.92c.06-.32-.05-.66-.29-.88l-5.09-4.85,7.09-1.01c.3-.05,.55-.23,.69-.5l3.23-6.4,3.23,6.4c.13,.27,.39,.46,.69,.5l7.09,1.01-5.09,4.85c-.24,.23-.35,.56-.29,.89l1.21,6.92-6.45-3.31c-.25-.13-.55-.13-.81,0h0Z"/>
</svg>