<?xml version="1.0" encoding="UTF-8"?>
<svg id="Capa_1" data-name="Capa 1" xmlns="http://www.w3.org/2000/svg" width="78.5" height="78.5" viewBox="0 0 78.5 78.5">
  <defs>
    <style>
      .cls-1 {
        fill: #fff;
      }

      .cls-2 {
        fill: none;
        stroke: #66800a;
        stroke-linecap: round;
        stroke-miterlimit: 10;
        stroke-width: 3.5px;
      }

      .cls-3 {
        fill: #66800a;
      }
    </style>
  </defs>
  <path class="cls-2" d="M63.97,11.05c7.83,6.87,12.78,16.96,12.78,28.2,0,20.71-16.79,37.5-37.5,37.5S1.75,59.96,1.75,39.25,18.54,1.75,39.25,1.75c5.89,.26,7.75,.75,13.11,2.45"/>
  <path class="cls-3" d="M57.01,7.76c.16,.9,1.09,1.56,1.99,1.4,.9-.16,1.56-1.09,1.4-1.99s-.98-1.58-1.99-1.4c-1.02,.18-1.56,1.09-1.4,1.99Z"/>
  <g>
    <path class="cls-3" d="M10.58,24.16l6.04,5.64-.74,1.58-8.2-.98,.68-1.47,4.84,.68c.08,0,.24,.03,.46,.08,.22,.04,.45,.09,.69,.14,.24,.05,.44,.1,.59,.15-.14-.09-.3-.21-.5-.35-.19-.15-.38-.29-.55-.44-.17-.14-.29-.24-.35-.29l-3.64-3.26,.68-1.47Z"/>
    <path class="cls-3" d="M19.28,19.38c.47,.39,.84,.8,1.13,1.23,.29,.43,.48,.87,.56,1.33s.06,.92-.08,1.39c-.14,.47-.41,.94-.81,1.42-.39,.47-.81,.82-1.25,1.05-.44,.23-.89,.34-1.35,.33-.46,0-.93-.11-1.4-.32-.47-.21-.95-.51-1.42-.9-.62-.52-1.09-1.07-1.38-1.66s-.4-1.19-.32-1.81c.08-.62,.39-1.25,.92-1.89,.52-.63,1.09-1.04,1.68-1.24,.6-.2,1.21-.2,1.84,0,.63,.19,1.25,.55,1.88,1.07Zm-3.52,4.22c.42,.35,.82,.6,1.21,.75,.39,.15,.75,.19,1.09,.11s.65-.29,.93-.63c.29-.35,.44-.69,.46-1.04s-.08-.7-.31-1.05c-.22-.35-.54-.7-.96-1.05-.63-.53-1.22-.83-1.77-.91-.55-.08-1.04,.14-1.47,.66-.28,.34-.44,.69-.45,1.04-.02,.35,.08,.71,.3,1.06,.22,.35,.54,.7,.96,1.06Z"/>
    <path class="cls-3" d="M23.22,21.31l-4.57-6.39,1.32-.94,3.76,5.26,2.49-1.78,.81,1.13-3.81,2.72Z"/>
    <path class="cls-3" d="M32.39,13.38c.2,.51,.27,1,.21,1.49s-.25,.94-.59,1.34-.84,.73-1.5,.99c-.93,.36-1.74,.39-2.42,.08-.68-.31-1.18-.87-1.49-1.68l-1.83-4.72,1.49-.58,1.74,4.48c.23,.6,.52,.98,.85,1.13,.33,.15,.73,.14,1.2-.04,.33-.13,.57-.29,.73-.48,.16-.2,.24-.43,.24-.72s-.07-.61-.22-.99l-1.73-4.47,1.49-.58,1.84,4.74Z"/>
    <path class="cls-3" d="M41.4,15.25l-2.03,.12-3.63-5.74h-.04c.03,.25,.06,.5,.08,.75,.03,.25,.05,.5,.08,.75,.02,.25,.05,.5,.07,.75l.22,3.69-1.43,.08-.46-7.84,2.02-.12,3.62,5.68h.03c-.02-.24-.04-.48-.06-.73s-.04-.48-.07-.72-.05-.48-.07-.72l-.22-3.71,1.44-.08,.46,7.84Z"/>
    <path class="cls-3" d="M45.67,16.15l-1.58-.35,1.38-6.31-2-.44,.3-1.36,5.58,1.22-.3,1.36-2-.44-1.38,6.31Z"/>
    <path class="cls-3" d="M51.88,18.58l.26-1.92-2.42-1.13-1.31,1.43-1.58-.74,5.76-6.01,1.8,.85-.93,8.28-1.58-.74Zm.77-5.12c.02-.11,.05-.28,.09-.5,.04-.22,.08-.45,.13-.69s.09-.42,.12-.57c-.1,.14-.22,.3-.36,.48-.14,.18-.28,.35-.41,.51-.13,.17-.24,.3-.33,.41l-1.21,1.31,1.73,.81,.25-1.77Z"/>
    <path class="cls-3" d="M60.59,15.16c.51,.43,.88,.85,1.1,1.26,.22,.41,.31,.82,.26,1.22-.05,.4-.24,.79-.57,1.18-.23,.27-.47,.47-.74,.6-.27,.13-.54,.2-.82,.22-.28,.01-.56-.01-.84-.09l-.58,4.04-1.42-1.19,.65-3.39-.69-.58-1.94,2.31-1.24-1.04,5.05-6.02,1.78,1.49Zm-.87,.98l-.51-.43-1.44,1.71,.51,.43c.33,.28,.64,.42,.94,.43,.3,0,.58-.15,.85-.47,.15-.18,.24-.36,.27-.54s-.01-.36-.11-.55c-.1-.19-.27-.38-.51-.58Z"/>
    <path class="cls-3" d="M60.44,26.41l-2.15-2.69,.74-.59,.92,.44,3.97-3.18-.23-.99,.74-.59,2.15,2.69-.74,.59-.92-.44-3.96,3.18,.23,.99-.74,.59Z"/>
    <path class="cls-3" d="M67.62,31.45c-.55,.27-1.07,.45-1.58,.54-.51,.09-.99,.08-1.44-.02s-.86-.32-1.24-.64-.69-.76-.97-1.31c-.27-.55-.42-1.07-.46-1.56-.03-.49,.05-.95,.24-1.37s.48-.81,.86-1.16c.38-.35,.84-.66,1.4-.93,.73-.36,1.42-.56,2.07-.6s1.25,.11,1.78,.44c.54,.33,.99,.86,1.35,1.6,.36,.73,.51,1.41,.45,2.04-.06,.63-.31,1.19-.74,1.68-.43,.5-1.01,.92-1.74,1.29Zm-2.44-4.93c-.49,.24-.88,.51-1.17,.8-.3,.29-.48,.61-.54,.96-.06,.35,0,.71,.2,1.11,.2,.4,.46,.69,.77,.84,.31,.16,.67,.2,1.08,.14s.86-.21,1.35-.45c.74-.36,1.25-.78,1.54-1.25,.29-.47,.29-1-.01-1.61-.2-.4-.45-.68-.77-.84-.32-.16-.68-.21-1.09-.15-.41,.06-.86,.21-1.35,.45Z"/>
  </g>
  <g>
    <path class="cls-3" d="M52.08,39.99c.11,.08,.13,.11,.15,.1,2.01-.09,2.79,1.07,2.71,3.07-.07,1.71,0,3.43-.02,5.14-.02,1.8-1.07,2.89-2.86,3.04-.22,.02-.51,.19-.63,.37-1.08,1.65-2.6,2.44-4.56,2.44-5.08-.01-10.16,0-15.24-.03-1.79,0-3.15-.86-4.11-2.33-.21-.32-.41-.46-.81-.48-1.6-.07-2.72-1.21-2.75-2.84-.03-2.03-.02-4.07,.02-6.1,.02-1.41,.81-2.18,2.22-2.25,.16,0,.31-.02,.58-.04,0-.28,0-.54,0-.8,.07-1.62-.08-3.28,.25-4.84,.88-4.16,3.69-6.7,7.53-8.21,.44-.17,.62-.34,.66-.85,.15-2.35,3.01-4.13,5.43-3.4,1.51,.45,3.02,1.75,3.04,3.64,0,.19,.3,.46,.52,.54,2.87,1.11,5.19,2.86,6.68,5.61,.77,1.43,1.18,2.96,1.19,4.6,0,1.21,0,2.42,0,3.61Zm-12.7,12.75c2.49,0,4.99,.01,7.48,0,2.37-.01,3.82-1.45,3.82-3.8,.01-4.12,.01-8.23,0-12.35,0-2.16-.72-4.08-2.1-5.74-3.06-3.7-8.59-5.1-13.38-3.38-3.88,1.39-7.23,4.73-7.06,9.92,.13,3.79,.02,7.59,.03,11.39,0,2.57,1.37,3.96,3.93,3.96,2.43,0,4.85,0,7.28,0Zm2.85-27.28c-.02-.89-.6-1.45-1.37-1.87-1.18-.64-2.29-.39-3.32,.36-.53,.39-.96,.87-.87,1.5h5.57Zm-16.81,18.83c0,1.54-.05,3.04,.02,4.53,.04,.69,.61,1.01,1.29,1.08v-5.55c-.46-.02-.86-.04-1.31-.06Zm26.71,.07v5.52c.95-.15,1.33-.55,1.36-1.44,.02-.62,0-1.23,0-1.85,0-.77,0-1.53,0-2.32-.52,.03-.92,.06-1.37,.08Zm-25.37-3.01c-.52,.23-.94,.35-1.27,.59-.1,.08-.05,.63,.08,.71,.33,.2,.75,.24,1.18,.36v-1.67Zm25.36,1.78c.53-.24,.95-.36,1.27-.61,.1-.08,.04-.63-.1-.71-.33-.19-.75-.23-1.18-.34v1.66Z"/>
    <path class="cls-1" d="M39.38,52.74c-2.43,0-4.85,0-7.28,0-2.56,0-3.93-1.39-3.93-3.96,0-3.8,.1-7.59-.03-11.39-.17-5.19,3.18-8.54,7.06-9.92,4.79-1.72,10.32-.32,13.38,3.38,1.38,1.66,2.09,3.58,2.1,5.74,.01,4.12,.01,8.23,0,12.35,0,2.35-1.45,3.79-3.82,3.8-2.49,.02-4.99,0-7.48,0Zm.02-2.12c2.06,0,4.12,0,6.18,0,1.41,0,2.27-.84,2.28-2.25,.02-2.24,.02-4.48,0-6.72-.01-1.4-.89-2.26-2.29-2.26-4.1,0-8.19,0-12.29,0-1.4,0-2.27,.86-2.28,2.27-.02,2.24-.02,4.48,0,6.72,.01,1.41,.87,2.24,2.29,2.25,2.04,0,4.08,0,6.11,0Zm-.18-21.79c-.53,.06-1.24,.1-1.93,.23-2.39,.44-4.46,1.45-6.01,3.39-.31,.39-.43,.79,0,1.14,.4,.32,.78,.17,1.06-.22,2.64-3.53,9.01-4.14,12.76-1.37,.56,.42,.98,1.03,1.53,1.45,.22,.17,.64,.1,.97,.14,.04-.33,.12-.66,.1-.98,0-.15-.2-.3-.32-.43-2.12-2.39-4.89-3.23-8.15-3.35Zm8.63,7.13c0-.27,.09-.59-.02-.81-.13-.26-.42-.56-.67-.59-.2-.02-.61,.3-.65,.52-.09,.55-.09,1.14,0,1.69,.04,.22,.44,.55,.65,.52,.25-.03,.52-.34,.67-.6,.11-.19,.02-.49,.02-.74Z"/>
    <path class="cls-1" d="M42.23,25.47h-5.57c-.08-.63,.34-1.11,.87-1.5,1.03-.76,2.14-1,3.32-.36,.77,.41,1.35,.97,1.37,1.87Z"/>
    <path class="cls-1" d="M25.41,44.29c.45,.02,.85,.04,1.31,.06v5.55c-.68-.07-1.25-.39-1.29-1.08-.08-1.49-.02-2.99-.02-4.53Z"/>
    <path class="cls-1" d="M52.12,44.37c.45-.03,.85-.05,1.37-.08,0,.79,0,1.55,0,2.32,0,.62,.01,1.23,0,1.85-.03,.89-.41,1.29-1.36,1.44v-5.52Z"/>
    <path class="cls-1" d="M26.75,41.35v1.67c-.44-.12-.86-.17-1.18-.36-.13-.08-.19-.63-.08-.71,.33-.24,.74-.36,1.27-.59Z"/>
    <path class="cls-1" d="M52.12,43.13v-1.66c.43,.11,.85,.15,1.18,.34,.14,.08,.2,.63,.1,.71-.32,.25-.74,.37-1.27,.61Z"/>
    <path class="cls-3" d="M39.4,50.62c-2.04,0-4.08,0-6.11,0-1.42,0-2.28-.83-2.29-2.25-.02-2.24-.02-4.48,0-6.72,.01-1.41,.88-2.27,2.28-2.27,4.1,0,8.19,0,12.29,0,1.4,0,2.28,.86,2.29,2.26,.02,2.24,.02,4.48,0,6.72-.01,1.42-.87,2.25-2.28,2.25-2.06,0-4.12,0-6.18,0Zm-6.99-7.06c0,1.64,0,3.29,0,4.93,0,.51,.32,.73,.8,.74,.64,0,1.28,0,1.92,0,3.41,0,6.82,0,10.23,0,.9,0,1.08-.18,1.08-1.09,0-.69,0-1.37,0-2.06,0-.86,0-1.71,0-2.52h-14.04Zm6.95-1.35s0,.01,0,.02c1.58,0,3.15,0,4.73,0,.53,0,1.05,0,1.58-.03,.43-.02,.76-.2,.77-.69,.01-.49-.3-.68-.74-.72-.16-.01-.32,0-.48,0-3.86,0-7.72,0-11.58,0-.23,0-.5-.05-.67,.05-.22,.13-.52,.4-.52,.6,0,.25,.26,.54,.48,.7,.15,.11,.44,.06,.67,.06,1.92,0,3.84,0,5.76,0Z"/>
    <path class="cls-3" d="M39.22,28.83c3.26,.12,6.03,.97,8.15,3.35,.12,.14,.31,.28,.32,.43,.02,.32-.06,.66-.1,.98-.33-.04-.74,.03-.97-.14-.55-.43-.97-1.04-1.53-1.45-3.75-2.77-10.13-2.16-12.76,1.37-.29,.38-.67,.54-1.06,.22-.43-.35-.3-.75,0-1.14,1.55-1.94,3.62-2.95,6.01-3.39,.69-.13,1.41-.17,1.93-.23Z"/>
    <path class="cls-3" d="M47.85,35.96c0,.25,.09,.55-.02,.74-.14,.26-.42,.57-.67,.6-.2,.02-.61-.3-.65-.52-.09-.55-.1-1.14,0-1.69,.04-.22,.44-.54,.65-.52,.25,.03,.54,.34,.67,.59,.11,.22,.02,.53,.02,.81Z"/>
    <path class="cls-1" d="M32.41,43.56h14.04c0,.81,0,1.67,0,2.52,0,.69,0,1.37,0,2.06,0,.91-.18,1.09-1.08,1.09-3.41,0-6.82,0-10.23,0-.64,0-1.28,0-1.92,0-.48,0-.8-.23-.8-.74,0-1.64,0-3.29,0-4.93Zm11.22,4.25s0,0,0,0c.25,0,.55,.09,.74-.02,.27-.16,.6-.44,.64-.71,.03-.18-.37-.57-.62-.63-.48-.1-1.02-.1-1.49,0-.25,.06-.61,.43-.61,.65,0,.23,.34,.53,.6,.68,.19,.11,.49,.02,.74,.02Zm-8.41-1.39c-.25,0-.55-.08-.74,.02-.26,.14-.62,.42-.63,.64,0,.23,.32,.63,.57,.68,.5,.11,1.06,.11,1.56,0,.25-.05,.59-.43,.59-.67,0-.23-.35-.52-.61-.66-.19-.11-.49-.02-.74-.02Zm4.18,1.39s0,0,0,.01c.23,0,.46,.02,.68,0,.44-.04,.81-.27,.7-.72-.06-.27-.42-.59-.69-.65-.45-.11-.97-.1-1.42,0-.25,.06-.6,.42-.6,.65,0,.23,.33,.53,.59,.68,.19,.11,.49,.02,.74,.02Z"/>
    <path class="cls-1" d="M39.36,42.21c-1.92,0-3.84,0-5.76,0-.23,0-.51,.05-.67-.06-.22-.17-.47-.46-.48-.7,0-.2,.29-.47,.52-.6,.17-.1,.44-.05,.67-.05,3.86,0,7.72,0,11.58,0,.16,0,.32,0,.48,0,.44,.04,.75,.23,.74,.72-.01,.49-.34,.67-.77,.69-.52,.02-1.05,.03-1.58,.03-1.58,0-3.15,0-4.73,0,0,0,0-.01,0-.02Z"/>
    <path class="cls-3" d="M43.63,47.81c-.25,0-.55,.09-.74-.02-.26-.15-.6-.45-.6-.68,0-.23,.35-.6,.61-.65,.48-.11,1.01-.1,1.49,0,.26,.05,.65,.44,.62,.63-.04,.27-.37,.55-.64,.71-.19,.11-.49,.02-.74,.02,0,0,0,0,0,0Z"/>
    <path class="cls-3" d="M35.22,46.43c.25,0,.55-.08,.74,.02,.26,.14,.61,.44,.61,.66,0,.23-.35,.62-.59,.67-.5,.1-1.06,.1-1.56,0-.24-.05-.58-.45-.57-.68,0-.23,.36-.5,.63-.64,.2-.1,.49-.02,.74-.02Z"/>
    <path class="cls-3" d="M39.41,47.81c-.25,0-.55,.09-.74-.02-.26-.15-.59-.45-.59-.68,0-.23,.35-.59,.6-.65,.45-.11,.97-.12,1.42,0,.28,.06,.63,.39,.69,.65,.11,.45-.27,.68-.7,.72-.23,.02-.46,0-.68,0,0,0,0,0,0-.01Z"/>
  </g>
  <g>
    <path class="cls-3" d="M9.65,53.19l-1.66-4.2,7.3-2.89,1.67,4.2-1.27,.5-1.05-2.66-1.61,.64,.98,2.47-1.27,.5-.98-2.48-1.88,.75,1.05,2.66-1.28,.51Z"/>
    <path class="cls-3" d="M14.59,60.8l-1.12-1.58,1.3-3.05-3.32,.21-1.08-1.53,4.81-.21,1.69-4.2,1.08,1.53-1.26,2.87,3.11-.26,1.09,1.54-4.61,.24-1.69,4.45Z"/>
    <path class="cls-3" d="M23.12,57.91c.77,.66,1.2,1.3,1.3,1.94,.09,.64-.11,1.25-.61,1.83-.22,.26-.48,.48-.76,.65s-.6,.28-.94,.32c-.35,.04-.71-.01-1.1-.16s-.8-.4-1.23-.77l-.54-.46-1.81,2.12-1.28-1.09,5.1-5.97,1.87,1.6Zm-.93,1.01l-.55-.47-1.5,1.76,.43,.36c.23,.2,.46,.34,.68,.43,.22,.09,.43,.1,.64,.04,.21-.06,.41-.2,.6-.42,.23-.27,.32-.54,.28-.83-.04-.29-.23-.58-.58-.87Z"/>
    <path class="cls-3" d="M22.39,67.12l3.61-6.97,1.49,.77-2.98,5.74,2.82,1.46-.64,1.23-4.32-2.24Z"/>
    <path class="cls-3" d="M36.65,67.95c-.13,.59-.33,1.12-.58,1.56-.26,.45-.57,.82-.95,1.1-.38,.28-.81,.47-1.31,.55-.5,.08-1.06,.05-1.69-.09-.62-.14-1.14-.36-1.56-.65-.42-.29-.74-.64-.96-1.06-.22-.42-.35-.88-.38-1.4-.04-.52,.01-1.08,.15-1.68,.18-.79,.47-1.46,.86-1.98,.39-.53,.9-.89,1.51-1.1,.61-.2,1.34-.21,2.18-.02,.83,.19,1.48,.5,1.94,.95,.47,.45,.76,1,.89,1.64,.12,.65,.1,1.37-.08,2.16Zm-5.57-1.26c-.12,.53-.16,1-.11,1.42,.04,.42,.19,.76,.43,1.03,.24,.27,.58,.45,1.03,.55,.46,.1,.85,.08,1.18-.05,.33-.14,.6-.39,.82-.75,.22-.36,.38-.8,.5-1.33,.18-.8,.18-1.46-.01-1.99-.19-.52-.63-.86-1.31-1.02-.45-.1-.84-.08-1.18,.06-.33,.14-.61,.39-.83,.74-.22,.35-.39,.8-.51,1.33Z"/>
    <path class="cls-3" d="M40.6,63.9c.69-.04,1.26,.02,1.73,.16,.46,.15,.82,.38,1.06,.71,.24,.33,.38,.74,.41,1.25,.02,.35-.03,.67-.14,.94-.11,.28-.26,.52-.47,.72s-.43,.37-.7,.51l2.42,3.34-1.92,.11-1.91-2.91-.93,.05,.17,3.01-1.68,.09-.43-7.84,2.41-.13Zm.04,1.31l-.69,.04,.12,2.23,.69-.04c.45-.03,.79-.14,1.02-.33,.23-.2,.34-.5,.31-.92-.01-.23-.07-.43-.18-.57-.11-.15-.27-.26-.48-.33-.21-.07-.48-.09-.8-.08Z"/>
    <path class="cls-3" d="M51.66,69.51l-1.15-1.57-2.63,.87v1.94s-1.72,.57-1.72,.57l.16-8.35,1.96-.65,5.11,6.62-1.72,.57Zm-3.01-4.23c-.06-.09-.16-.24-.29-.43s-.26-.38-.38-.59-.23-.37-.31-.49c.02,.17,.05,.37,.06,.59,.02,.23,.03,.45,.05,.66,.01,.21,.03,.39,.04,.53v1.79s1.89-.62,1.89-.62l-1.05-1.45Z"/>
    <path class="cls-3" d="M58.48,60.85c.5,.75,.79,1.46,.84,2.15,.06,.69-.08,1.33-.42,1.92-.34,.59-.86,1.13-1.56,1.6l-1.99,1.34-4.4-6.5,2.15-1.46c.69-.46,1.35-.74,2-.83,.64-.09,1.25,.02,1.83,.31,.58,.29,1.09,.78,1.55,1.46Zm-1.42,1.04c-.32-.47-.65-.81-.99-1.02-.34-.21-.7-.3-1.07-.26s-.76,.19-1.16,.46l-.72,.49,2.85,4.22,.58-.39c.67-.45,1.04-.97,1.12-1.54s-.12-1.23-.61-1.95Z"/>
    <path class="cls-3" d="M64.36,54.2c.47,.38,.85,.79,1.14,1.22,.29,.43,.48,.88,.56,1.34s.06,.94-.09,1.42c-.15,.48-.43,.98-.83,1.48-.4,.5-.83,.87-1.27,1.11s-.9,.38-1.38,.38c-.47,0-.95-.08-1.42-.28-.48-.2-.96-.49-1.44-.88-.63-.51-1.1-1.06-1.39-1.65-.3-.59-.4-1.2-.31-1.84,.09-.64,.41-1.29,.95-1.96,.54-.66,1.11-1.1,1.72-1.32,.61-.22,1.23-.24,1.87-.06,.64,.18,1.27,.52,1.9,1.04Zm-3.6,4.43c.42,.34,.83,.58,1.22,.73,.39,.14,.76,.17,1.11,.07,.35-.1,.66-.32,.95-.67,.3-.36,.45-.72,.47-1.08s-.08-.71-.3-1.06c-.22-.35-.55-.7-.97-1.04-.64-.52-1.23-.81-1.79-.87-.55-.06-1.05,.18-1.5,.73-.29,.36-.45,.72-.47,1.08-.02,.36,.08,.72,.3,1.07s.54,.7,.97,1.05Z"/>
    <path class="cls-3" d="M62.49,48.86c.27-.63,.57-1.13,.91-1.48,.34-.35,.7-.56,1.1-.64,.4-.07,.83-.01,1.3,.19,.32,.14,.59,.32,.79,.54,.2,.22,.35,.47,.44,.74,.09,.27,.14,.56,.15,.85l4.06-.7-.75,1.77-3.46,.43-.37,.86,2.77,1.18-.66,1.55-7.23-3.08,.94-2.22Zm1.19,.54l-.27,.64,2.05,.87,.27-.64c.17-.41,.23-.76,.15-1.06-.07-.29-.3-.52-.69-.69-.22-.09-.41-.12-.59-.09-.18,.03-.35,.12-.5,.28-.16,.16-.29,.38-.42,.68Z"/>
  </g>
</svg>