<?xml version="1.0" encoding="UTF-8"?>
<svg id="Capa_1" data-name="Capa 1" xmlns="http://www.w3.org/2000/svg" viewBox="0 0 78.5 78.5">
  <defs>
    <style>
      .cls-1 {
        fill: #fff;
      }

      .cls-2 {
        fill: none;
        stroke: #66800a;
        stroke-linecap: round;
        stroke-miterlimit: 10;
        stroke-width: 3.5px;
      }

      .cls-3 {
        font-family: NotoSans-Bold, 'Noto Sans';
        font-size: 12px;
        font-variation-settings: 'wght' 700, 'wdth' 100;
      }

      .cls-3, .cls-4 {
        fill: #66800a;
      }
    </style>
  </defs>
  <path class="cls-2" d="M63.97,11.05c7.83,6.87,12.78,16.96,12.78,28.2,0,20.71-16.79,37.5-37.5,37.5S1.75,59.96,1.75,39.25,18.54,1.75,39.25,1.75c5.89,.26,7.75,.75,13.11,2.45"/>
  <path class="cls-4" d="M57.01,7.76c.16,.9,1.09,1.56,1.99,1.4,.9-.16,1.56-1.09,1.4-1.99s-.98-1.58-1.99-1.4c-1.02,.18-1.56,1.09-1.4,1.99Z"/>
  <text class="cls-3" transform="translate(14.05 36.41) rotate(-70.33) scale(.96 1)"><tspan x="0" y="0">V</tspan></text>
  <text class="cls-3" transform="translate(16.19 29.82) rotate(-54.12) scale(.96 1)"><tspan x="0" y="0">O</tspan></text>
  <text class="cls-3" transform="translate(21.33 22.9) rotate(-38.45) scale(.96 1)"><tspan x="0" y="0">L</tspan></text>
  <text class="cls-3" transform="translate(25.78 19.06) rotate(-22.91) scale(.96 1)"><tspan x="0" y="0">U</tspan></text>
  <text class="cls-3" transform="translate(33.24 15.75) rotate(-3.63) scale(.96 1)"><tspan x="0" y="0">N</tspan></text>
  <text class="cls-3" transform="translate(42.07 15.3) rotate(13.39) scale(.96 1)"><tspan x="0" y="0">T</tspan></text>
  <text class="cls-3" transform="translate(47.4 16.34) rotate(27.21) scale(.96 1)"><tspan x="0" y="0">A</tspan></text>
  <text class="cls-3" transform="translate(54.09 19.74) rotate(43.27) scale(.96 1)"><tspan x="0" y="0">R</tspan></text>
  <text class="cls-3" transform="translate(59.22 24.73) rotate(55.31) scale(.96 1)"><tspan x="0" y="0">I</tspan></text>
  <text class="cls-3" transform="translate(61.81 27.92) rotate(68.75) scale(.96 1)"><tspan x="0" y="0">O</tspan></text>
  <g>
    <path class="cls-4" d="M52.08,39.99c.11,.08,.13,.11,.15,.1,2.01-.09,2.79,1.07,2.71,3.07-.07,1.71,0,3.43-.02,5.14-.02,1.8-1.07,2.89-2.86,3.04-.22,.02-.51,.19-.63,.37-1.08,1.65-2.6,2.44-4.56,2.44-5.08-.01-10.16,0-15.24-.03-1.79,0-3.15-.86-4.11-2.33-.21-.32-.41-.46-.81-.48-1.6-.07-2.72-1.21-2.75-2.84-.03-2.03-.02-4.07,.02-6.1,.02-1.41,.81-2.18,2.22-2.25,.16,0,.31-.02,.58-.04,0-.28,0-.54,0-.8,.07-1.62-.08-3.28,.25-4.84,.88-4.16,3.69-6.7,7.53-8.21,.44-.17,.62-.34,.66-.85,.15-2.35,3.01-4.13,5.43-3.4,1.51,.45,3.02,1.75,3.04,3.64,0,.19,.3,.46,.52,.54,2.87,1.11,5.19,2.86,6.68,5.61,.77,1.43,1.18,2.96,1.19,4.6,0,1.21,0,2.42,0,3.61Zm-12.7,12.75c2.49,0,4.99,.01,7.48,0,2.37-.01,3.82-1.45,3.82-3.8,.01-4.12,.01-8.23,0-12.35,0-2.16-.72-4.08-2.1-5.74-3.06-3.7-8.59-5.1-13.38-3.38-3.88,1.39-7.23,4.73-7.06,9.92,.13,3.79,.02,7.59,.03,11.39,0,2.57,1.37,3.96,3.93,3.96,2.43,0,4.85,0,7.28,0Zm2.85-27.28c-.02-.89-.6-1.45-1.37-1.87-1.18-.64-2.29-.39-3.32,.36-.53,.39-.96,.87-.87,1.5h5.57Zm-16.81,18.83c0,1.54-.05,3.04,.02,4.53,.04,.69,.61,1.01,1.29,1.08v-5.55c-.46-.02-.86-.04-1.31-.06Zm26.71,.07v5.52c.95-.15,1.33-.55,1.36-1.44,.02-.62,0-1.23,0-1.85,0-.77,0-1.53,0-2.32-.52,.03-.92,.06-1.37,.08Zm-25.37-3.01c-.52,.23-.94,.35-1.27,.59-.1,.08-.05,.63,.08,.71,.33,.2,.75,.24,1.18,.36v-1.67Zm25.36,1.78c.53-.24,.95-.36,1.27-.61,.1-.08,.04-.63-.1-.71-.33-.19-.75-.23-1.18-.34v1.66Z"/>
    <path class="cls-1" d="M39.38,52.74c-2.43,0-4.85,0-7.28,0-2.56,0-3.93-1.39-3.93-3.96,0-3.8,.1-7.59-.03-11.39-.17-5.19,3.18-8.54,7.06-9.92,4.79-1.72,10.32-.32,13.38,3.38,1.38,1.66,2.09,3.58,2.1,5.74,.01,4.12,.01,8.23,0,12.35,0,2.35-1.45,3.79-3.82,3.8-2.49,.02-4.99,0-7.48,0Zm.02-2.12c2.06,0,4.12,0,6.18,0,1.41,0,2.27-.84,2.28-2.25,.02-2.24,.02-4.48,0-6.72-.01-1.4-.89-2.26-2.29-2.26-4.1,0-8.19,0-12.29,0-1.4,0-2.27,.86-2.28,2.27-.02,2.24-.02,4.48,0,6.72,.01,1.41,.87,2.24,2.29,2.25,2.04,0,4.08,0,6.11,0Zm-.18-21.79c-.53,.06-1.24,.1-1.93,.23-2.39,.44-4.46,1.45-6.01,3.39-.31,.39-.43,.79,0,1.14,.4,.32,.78,.17,1.06-.22,2.64-3.53,9.01-4.14,12.76-1.37,.56,.42,.98,1.03,1.53,1.45,.22,.17,.64,.1,.97,.14,.04-.33,.12-.66,.1-.98,0-.15-.2-.3-.32-.43-2.12-2.39-4.89-3.23-8.15-3.35Zm8.63,7.13c0-.27,.09-.59-.02-.81-.13-.26-.42-.56-.67-.59-.2-.02-.61,.3-.65,.52-.09,.55-.09,1.14,0,1.69,.04,.22,.44,.55,.65,.52,.25-.03,.52-.34,.67-.6,.11-.19,.02-.49,.02-.74Z"/>
    <path class="cls-1" d="M42.23,25.47h-5.57c-.08-.63,.34-1.11,.87-1.5,1.03-.76,2.14-1,3.32-.36,.77,.41,1.35,.97,1.37,1.87Z"/>
    <path class="cls-1" d="M25.41,44.29c.45,.02,.85,.04,1.31,.06v5.55c-.68-.07-1.25-.39-1.29-1.08-.08-1.49-.02-2.99-.02-4.53Z"/>
    <path class="cls-1" d="M52.12,44.37c.45-.03,.85-.05,1.37-.08,0,.79,0,1.55,0,2.32,0,.62,.01,1.23,0,1.85-.03,.89-.41,1.29-1.36,1.44v-5.52Z"/>
    <path class="cls-1" d="M26.75,41.35v1.67c-.44-.12-.86-.17-1.18-.36-.13-.08-.19-.63-.08-.71,.33-.24,.74-.36,1.27-.59Z"/>
    <path class="cls-1" d="M52.12,43.13v-1.66c.43,.11,.85,.15,1.18,.34,.14,.08,.2,.63,.1,.71-.32,.25-.74,.37-1.27,.61Z"/>
    <path class="cls-4" d="M39.4,50.62c-2.04,0-4.08,0-6.11,0-1.42,0-2.28-.83-2.29-2.25-.02-2.24-.02-4.48,0-6.72,.01-1.41,.88-2.27,2.28-2.27,4.1,0,8.19,0,12.29,0,1.4,0,2.28,.86,2.29,2.26,.02,2.24,.02,4.48,0,6.72-.01,1.42-.87,2.25-2.28,2.25-2.06,0-4.12,0-6.18,0Zm-6.99-7.06c0,1.64,0,3.29,0,4.93,0,.51,.32,.73,.8,.74,.64,0,1.28,0,1.92,0,3.41,0,6.82,0,10.23,0,.9,0,1.08-.18,1.08-1.09,0-.69,0-1.37,0-2.06,0-.86,0-1.71,0-2.52h-14.04Zm6.95-1.35s0,.01,0,.02c1.58,0,3.15,0,4.73,0,.53,0,1.05,0,1.58-.03,.43-.02,.76-.2,.77-.69,.01-.49-.3-.68-.74-.72-.16-.01-.32,0-.48,0-3.86,0-7.72,0-11.58,0-.23,0-.5-.05-.67,.05-.22,.13-.52,.4-.52,.6,0,.25,.26,.54,.48,.7,.15,.11,.44,.06,.67,.06,1.92,0,3.84,0,5.76,0Z"/>
    <path class="cls-4" d="M39.22,28.83c3.26,.12,6.03,.97,8.15,3.35,.12,.14,.31,.28,.32,.43,.02,.32-.06,.66-.1,.98-.33-.04-.74,.03-.97-.14-.55-.43-.97-1.04-1.53-1.45-3.75-2.77-10.13-2.16-12.76,1.37-.29,.38-.67,.54-1.06,.22-.43-.35-.3-.75,0-1.14,1.55-1.94,3.62-2.95,6.01-3.39,.69-.13,1.41-.17,1.93-.23Z"/>
    <path class="cls-4" d="M47.85,35.96c0,.25,.09,.55-.02,.74-.14,.26-.42,.57-.67,.6-.2,.02-.61-.3-.65-.52-.09-.55-.1-1.14,0-1.69,.04-.22,.44-.54,.65-.52,.25,.03,.54,.34,.67,.59,.11,.22,.02,.53,.02,.81Z"/>
    <path class="cls-1" d="M32.41,43.56h14.04c0,.81,0,1.67,0,2.52,0,.69,0,1.37,0,2.06,0,.91-.18,1.09-1.08,1.09-3.41,0-6.82,0-10.23,0-.64,0-1.28,0-1.92,0-.48,0-.8-.23-.8-.74,0-1.64,0-3.29,0-4.93Zm11.22,4.25s0,0,0,0c.25,0,.55,.09,.74-.02,.27-.16,.6-.44,.64-.71,.03-.18-.37-.57-.62-.63-.48-.1-1.02-.1-1.49,0-.25,.06-.61,.43-.61,.65,0,.23,.34,.53,.6,.68,.19,.11,.49,.02,.74,.02Zm-8.41-1.39c-.25,0-.55-.08-.74,.02-.26,.14-.62,.42-.63,.64,0,.23,.32,.63,.57,.68,.5,.11,1.06,.11,1.56,0,.25-.05,.59-.43,.59-.67,0-.23-.35-.52-.61-.66-.19-.11-.49-.02-.74-.02Zm4.18,1.39s0,0,0,.01c.23,0,.46,.02,.68,0,.44-.04,.81-.27,.7-.72-.06-.27-.42-.59-.69-.65-.45-.11-.97-.1-1.42,0-.25,.06-.6,.42-.6,.65,0,.23,.33,.53,.59,.68,.19,.11,.49,.02,.74,.02Z"/>
    <path class="cls-1" d="M39.36,42.21c-1.92,0-3.84,0-5.76,0-.23,0-.51,.05-.67-.06-.22-.17-.47-.46-.48-.7,0-.2,.29-.47,.52-.6,.17-.1,.44-.05,.67-.05,3.86,0,7.72,0,11.58,0,.16,0,.32,0,.48,0,.44,.04,.75,.23,.74,.72-.01,.49-.34,.67-.77,.69-.52,.02-1.05,.03-1.58,.03-1.58,0-3.15,0-4.73,0,0,0,0-.01,0-.02Z"/>
    <path class="cls-4" d="M43.63,47.81c-.25,0-.55,.09-.74-.02-.26-.15-.6-.45-.6-.68,0-.23,.35-.6,.61-.65,.48-.11,1.01-.1,1.49,0,.26,.05,.65,.44,.62,.63-.04,.27-.37,.55-.64,.71-.19,.11-.49,.02-.74,.02,0,0,0,0,0,0Z"/>
    <path class="cls-4" d="M35.22,46.43c.25,0,.55-.08,.74,.02,.26,.14,.61,.44,.61,.66,0,.23-.35,.62-.59,.67-.5,.1-1.06,.1-1.56,0-.24-.05-.58-.45-.57-.68,0-.23,.36-.5,.63-.64,.2-.1,.49-.02,.74-.02Z"/>
    <path class="cls-4" d="M39.41,47.81c-.25,0-.55,.09-.74-.02-.26-.15-.59-.45-.59-.68,0-.23,.35-.59,.6-.65,.45-.11,.97-.12,1.42,0,.28,.06,.63,.39,.69,.65,.11,.45-.27,.68-.7,.72-.23,.02-.46,0-.68,0,0,0,0,0,0-.01Z"/>
  </g>
  <text class="cls-3" transform="translate(16.12 62.49) rotate(37.39)"><tspan x="0" y="0">A</tspan></text>
  <text class="cls-3" transform="translate(23.8 68.1) rotate(21.43)"><tspan x="0" y="0">C</tspan></text>
  <text class="cls-3" transform="translate(32.34 71.2) rotate(6.3)"><tspan x="0" y="0">T</tspan></text>
  <text class="cls-3" transform="translate(40.31 71.85) rotate(-5.48)"><tspan x="0" y="0">I</tspan></text>
  <text class="cls-3" transform="translate(46.14 71.34) rotate(-18.34)"><tspan x="0" y="0">V</tspan></text>
  <text class="cls-3" transform="translate(54.95 68.3) rotate(-35.93)"><tspan x="0" y="0">O</tspan></text>
</svg>