<?xml version="1.0" encoding="UTF-8"?>
<svg id="Capa_1" data-name="Capa 1" xmlns="http://www.w3.org/2000/svg" width="78.51" height="78.5" viewBox="0 0 78.51 78.5">
  <defs>
    <style>
      .cls-1 {
        fill: none;
        stroke: #2b2987;
        stroke-linecap: round;
        stroke-miterlimit: 10;
        stroke-width: 3.5px;
      }

      .cls-2 {
        fill: #2b2987;
      }
    </style>
  </defs>
  <path class="cls-1" d="M66.87,13.88c5.88,7.31,9.62,14.09,9.88,25.37,.48,20.71-16.79,37.5-37.5,37.5S1.75,59.96,1.75,39.25,18.54,1.75,39.25,1.75c4.18,.13,3.73-.09,8.68,1.03"/>
  <path class="cls-2" d="M51.31,4.86c.19,.9,1.15,1.51,2.05,1.32,.9-.19,1.51-1.15,1.32-2.05s-1.04-1.54-2.05-1.32c-1.01,.22-1.51,1.15-1.32,2.05Z"/>
  <g>
    <path class="cls-2" d="M8.51,26.46l7.12,5.53-.64,1.79-9.01-.25,.6-1.66,5.32,.26c.09,0,.26,.01,.5,.04s.5,.05,.76,.08,.49,.06,.66,.1c-.16-.08-.35-.19-.58-.33-.23-.14-.44-.28-.64-.42-.2-.14-.34-.23-.42-.28l-4.28-3.19,.59-1.66Z"/>
    <path class="cls-2" d="M17.69,20.43c.54,.39,.98,.81,1.32,1.25,.34,.44,.58,.91,.71,1.4s.14,.99,.02,1.52c-.12,.52-.38,1.06-.78,1.61-.39,.54-.82,.95-1.28,1.24-.46,.28-.94,.44-1.45,.46-.5,.03-1.02-.05-1.55-.24-.53-.19-1.07-.48-1.61-.87-.72-.52-1.26-1.09-1.63-1.7-.37-.61-.53-1.26-.48-1.95,.05-.68,.33-1.39,.86-2.12,.52-.72,1.1-1.21,1.74-1.47s1.3-.31,2-.14,1.41,.5,2.13,1.02Zm-3.51,4.86c.48,.35,.94,.59,1.37,.73s.83,.15,1.2,.03c.37-.12,.69-.37,.97-.75,.29-.4,.43-.79,.42-1.17,0-.38-.14-.75-.41-1.12-.27-.37-.64-.72-1.12-1.07-.73-.52-1.39-.81-1.99-.85-.6-.04-1.12,.23-1.55,.83-.28,.39-.42,.78-.42,1.17,0,.39,.14,.76,.41,1.13,.26,.37,.64,.73,1.12,1.08Z"/>
    <path class="cls-2" d="M22.1,22.29l-5.33-6.71,1.38-1.1,4.39,5.53,2.61-2.08,.94,1.18-4,3.18Z"/>
    <path class="cls-2" d="M31.74,13.26c.23,.55,.32,1.09,.28,1.62-.05,.54-.25,1.03-.6,1.48-.36,.45-.89,.83-1.6,1.13-1.01,.43-1.89,.48-2.64,.17-.75-.31-1.31-.91-1.68-1.78l-2.15-5.08,1.61-.68,2.04,4.83c.27,.65,.59,1.05,.96,1.21,.37,.16,.8,.13,1.31-.08,.35-.15,.62-.33,.78-.55,.17-.22,.25-.48,.24-.79,0-.31-.1-.67-.27-1.07l-2.04-4.82,1.61-.68,2.16,5.11Z"/>
    <path class="cls-2" d="M41.57,15.22l-2.21,.14-4-6.24h-.05c.03,.27,.06,.54,.09,.81,.03,.27,.06,.54,.09,.81,.03,.27,.06,.54,.08,.81l.26,4.02-1.56,.1-.54-8.55,2.2-.14,3.98,6.18h.03c-.02-.27-.05-.53-.07-.79-.02-.26-.05-.52-.08-.78-.03-.26-.05-.52-.08-.78l-.26-4.05,1.57-.1,.54,8.55Z"/>
    <path class="cls-2" d="M46.17,16.28l-1.72-.41,1.63-6.85-2.17-.52,.35-1.48,6.06,1.44-.35,1.48-2.17-.52-1.63,6.85Z"/>
    <path class="cls-2" d="M52.82,19.12l.36-2.08-2.59-1.33-1.49,1.5-1.7-.87,6.51-6.33,1.93,.99-1.33,8.99-1.7-.87Zm1.04-5.55c.03-.12,.07-.3,.12-.55s.11-.49,.17-.74c.06-.25,.11-.46,.15-.62-.11,.15-.25,.32-.41,.5s-.32,.37-.47,.54-.28,.32-.38,.44l-1.38,1.38,1.86,.96,.34-1.92Z"/>
    <path class="cls-2" d="M62.52,15.91c.53,.5,.9,.98,1.12,1.44s.29,.91,.21,1.34c-.08,.43-.31,.84-.69,1.25-.26,.28-.54,.48-.84,.61-.3,.13-.6,.19-.91,.19-.3,0-.61-.05-.91-.15l-.88,4.36-1.47-1.39,.92-3.65-.71-.67-2.25,2.39-1.29-1.21,5.87-6.24,1.84,1.73Zm-1,1.02l-.53-.5-1.67,1.77,.53,.5c.34,.32,.67,.5,1,.53,.32,.03,.64-.12,.95-.46,.18-.19,.28-.38,.32-.57,.04-.19,.01-.4-.08-.61-.1-.21-.27-.43-.52-.67Z"/>
    <path class="cls-2" d="M61.57,28.12l-2.14-3.09,.85-.59,.97,.55,4.56-3.16-.18-1.1,.85-.59,2.14,3.09-.85,.59-.97-.55-4.56,3.16,.18,1.1-.85,.59Z"/>
    <path class="cls-2" d="M68.89,34.27c-.62,.24-1.21,.39-1.77,.43-.56,.05-1.08,0-1.56-.16s-.91-.43-1.28-.81c-.37-.38-.68-.89-.93-1.52-.24-.62-.36-1.21-.34-1.74,.01-.54,.15-1.03,.4-1.47,.25-.44,.6-.83,1.04-1.17s.98-.64,1.61-.88c.83-.32,1.6-.47,2.31-.45,.71,.02,1.34,.24,1.89,.65,.55,.41,.99,1.03,1.32,1.87,.32,.83,.42,1.59,.29,2.26s-.45,1.26-.96,1.76-1.19,.91-2.01,1.23Zm-2.17-5.59c-.55,.21-1,.47-1.35,.76-.35,.29-.58,.62-.68,.99-.1,.37-.07,.78,.11,1.22,.18,.46,.43,.79,.75,.99,.32,.2,.71,.29,1.16,.26,.45-.03,.96-.15,1.51-.36,.83-.32,1.43-.73,1.8-1.21,.36-.48,.41-1.06,.14-1.75-.18-.45-.43-.78-.76-.98-.33-.2-.72-.29-1.17-.27s-.96,.14-1.51,.36Z"/>
  </g>
  <g>
    <path class="cls-2" d="M9.01,51.77l7.62-3.92,.84,1.63-6.28,3.23,1.59,3.08-1.34,.69-2.43-4.72Z"/>
    <path class="cls-2" d="M16.26,62.42l-3.23-3.72,6.47-5.62,3.23,3.72-1.12,.98-2.05-2.36-1.42,1.24,1.9,2.19-1.12,.98-1.9-2.19-1.67,1.45,2.05,2.36-1.13,.98Z"/>
    <path class="cls-2" d="M24,62.36l2.84,1.86-2.44,3.71c-.46-.12-.91-.27-1.37-.47-.45-.19-.94-.46-1.45-.79-.71-.47-1.22-1-1.53-1.61-.31-.61-.42-1.27-.32-1.99,.1-.72,.42-1.48,.94-2.28,.49-.75,1.06-1.3,1.71-1.66s1.35-.5,2.11-.44c.75,.06,1.53,.36,2.33,.88,.38,.25,.73,.54,1.04,.86,.32,.32,.58,.65,.79,.98l-1.3,.88c-.15-.26-.34-.52-.57-.77-.23-.26-.5-.49-.81-.69-.44-.29-.89-.44-1.35-.45-.46-.01-.89,.11-1.31,.35-.42,.25-.79,.62-1.11,1.12-.31,.47-.52,.92-.63,1.37s-.09,.86,.05,1.24c.14,.38,.43,.72,.87,1.01,.21,.14,.4,.25,.57,.33,.16,.08,.32,.15,.46,.2l.98-1.5-1.35-.89,.83-1.26Z"/>
    <path class="cls-2" d="M32.14,71.08l-4.71-1.47,2.55-8.18,4.71,1.47-.44,1.42-2.98-.93-.56,1.8,2.77,.87-.44,1.42-2.77-.86-.66,2.11,2.98,.93-.45,1.43Z"/>
    <path class="cls-2" d="M42.47,67.44c-.02,.98-.23,1.8-.61,2.45-.38,.65-.91,1.13-1.59,1.44-.68,.31-1.48,.46-2.41,.43l-2.62-.06,.21-8.57,2.83,.07c.9,.02,1.67,.2,2.3,.53,.63,.33,1.1,.81,1.43,1.43,.33,.62,.48,1.38,.45,2.28Zm-1.92,.02c.02-.62-.06-1.13-.23-1.53-.17-.4-.43-.71-.79-.91s-.8-.31-1.32-.33l-.95-.02-.14,5.55,.77,.02c.88,.02,1.54-.2,1.97-.66,.44-.46,.66-1.17,.69-2.12Z"/>
    <path class="cls-2" d="M50.45,69.98l-1.18-1.76-2.91,.81-.09,2.12-1.91,.53,.58-9.1,2.17-.61,5.24,7.47-1.91,.53Zm-3.08-4.76c-.06-.11-.16-.27-.29-.48-.13-.21-.26-.43-.39-.66-.13-.22-.23-.41-.32-.55,.02,.19,.03,.4,.04,.65,0,.25,.01,.49,.02,.72,0,.23,.01,.42,.01,.58l-.09,1.96,2.09-.59-1.08-1.63Z"/>
    <path class="cls-2" d="M52.24,59.6c.64-.4,1.21-.66,1.73-.76,.52-.11,.98-.07,1.38,.11,.4,.18,.75,.5,1.05,.97,.21,.33,.33,.65,.37,.97s.02,.63-.06,.93-.22,.59-.39,.86l4.08,1.89-1.78,1.12-3.37-1.76-.86,.54,1.76,2.78-1.55,.98-4.58-7.24,2.22-1.41Zm.73,1.23l-.64,.4,1.3,2.06,.64-.4c.41-.26,.68-.55,.79-.86,.12-.31,.05-.66-.19-1.04-.14-.22-.3-.37-.48-.45-.18-.08-.39-.1-.63-.06-.24,.05-.5,.16-.8,.35Z"/>
    <path class="cls-2" d="M64.22,60.66l-2.75,2.77-.73-.73,.4-1.08-3.93-3.91-1.08,.4-.73-.73,2.75-2.77,.73,.73-.4,1.08,3.93,3.91,1.08-.4,.73,.73Z"/>
    <path class="cls-2" d="M66.3,49.74c.57,.33,1.05,.71,1.43,1.12,.38,.42,.66,.86,.83,1.35s.22,1,.14,1.55-.3,1.12-.65,1.73c-.35,.6-.75,1.07-1.19,1.41-.44,.34-.91,.55-1.42,.64s-1.03,.07-1.58-.06c-.55-.13-1.11-.37-1.69-.71-.77-.45-1.36-.96-1.78-1.55-.42-.58-.63-1.23-.64-1.93,0-.71,.22-1.46,.7-2.27,.47-.8,1.01-1.37,1.63-1.71,.62-.34,1.29-.46,2-.38,.71,.08,1.46,.35,2.22,.8Zm-3.15,5.38c.51,.3,.99,.49,1.44,.58,.45,.09,.85,.05,1.21-.11s.66-.46,.91-.88c.26-.44,.37-.86,.33-1.24-.04-.39-.21-.75-.51-1.1-.3-.34-.71-.66-1.22-.96-.77-.45-1.46-.67-2.07-.64-.61,.03-1.11,.37-1.49,1.03-.25,.44-.36,.85-.32,1.24,.04,.39,.21,.76,.5,1.11,.29,.34,.7,.67,1.22,.97Z"/>
  </g>
  <path class="cls-2" d="M56.48,7.49c.19,.9,1.15,1.51,2.05,1.32,.9-.19,1.51-1.15,1.32-2.05s-1.04-1.54-2.05-1.32c-1.01,.22-1.51,1.15-1.32,2.05Z"/>
  <path class="cls-2" d="M61.15,10.52c.19,.9,1.15,1.51,2.05,1.32,.9-.19,1.51-1.15,1.32-2.05s-1.04-1.54-2.05-1.32c-1.01,.22-1.51,1.15-1.32,2.05Z"/>
  <path class="cls-2" d="M29.95,27.11c0-.47,.38-.85,.85-.85h16.92c.47,0,.85,.38,.85,.85,0,.91-.02,1.78-.06,2.6,2.77,.46,4.64,3.07,4.18,5.84-.46,2.77-3.07,4.64-5.84,4.18-.09-.01-.17-.03-.26-.05-1.34,3.16-3.18,4.7-4.79,5.1v3.68l2.41,.6c.33,.08,.64,.23,.91,.43l3.11,2.33c.37,.28,.45,.81,.17,1.18-.16,.21-.41,.34-.68,.34H30.79c-.47,0-.85-.38-.85-.85,0-.27,.13-.52,.34-.68l3.11-2.33c.27-.2,.58-.35,.91-.43l2.41-.6v-3.68c-1.62-.4-3.46-1.94-4.79-5.1-2.74,.6-5.45-1.13-6.05-3.86-.6-2.74,1.13-5.45,3.86-6.05,.09-.02,.18-.04,.27-.05-.04-.87-.06-1.73-.06-2.6m.17,4.3c-1.84,.34-3.06,2.1-2.72,3.94,.34,1.84,2.1,3.06,3.94,2.72-.56-1.78-.99-3.97-1.22-6.66m17.06,6.66c1.84,.34,3.6-.88,3.94-2.72,.34-1.84-.88-3.6-2.72-3.94-.23,2.69-.66,4.88-1.22,6.66m-15.53-10.11c.01,.87,.04,1.7,.09,2.49,.22,3.43,.77,6,1.47,7.9,1.46,3.97,3.48,4.85,4.35,4.85,.47,0,.85,.38,.85,.85v4.42c0,.78-.53,1.45-1.28,1.64l-2.41,.6c-.11,.03-.21,.08-.3,.14l-1.08,.81h11.85l-1.08-.81c-.09-.07-.19-.12-.3-.14l-2.41-.6c-.75-.19-1.28-.87-1.28-1.64v-4.42c0-.47,.38-.85,.85-.85h0c.87,0,2.89-.88,4.35-4.85,.7-1.9,1.25-4.47,1.47-7.9,.05-.78,.08-1.61,.09-2.49h-15.22Z"/>
</svg>